<svg width="115" height="115" viewBox="0 0 115 115" fill="none" xmlns="http://www.w3.org/2000/svg">
<path d="M16.4448 79.3996C16.4448 79.3996 16.8948 73.2338 21.3947 73.0212C25.8946 72.8085 22.2947 83.6519 18.6948 84.5023C15.0948 85.3528 8.34496 84.7149 6.54499 80.25C6.54499 80.25 5.19502 77.9113 9.01994 77.9113C13.0699 77.9113 15.5448 80.4627 16.4448 79.3996Z" fill="#6C0B1C"/>
<path d="M11.4945 71.1075C11.4945 71.1075 12.6195 65.5795 16.8944 65.7921C21.1693 66.0047 16.4444 75.785 12.8445 75.9976C9.24454 76.2102 3.39465 74.9345 2.26968 70.6822C2.26968 70.6822 1.36969 68.3435 4.96962 68.7687C8.79455 69.4066 10.5945 71.9579 11.4945 71.1075Z" fill="#6C0B1C"/>
<path d="M9.24483 62.3903C9.24483 62.3903 11.2698 57.2875 15.3197 58.138C19.3696 58.9884 13.2948 67.493 9.69483 67.493C6.0949 67.493 0.695001 65.1542 0.470006 60.6893C0.470006 60.6893 -0.204982 58.3506 3.39495 59.4137C6.76988 60.2641 8.34485 63.0281 9.24483 62.3903Z" fill="#6C0B1C"/>
<path d="M8.56978 53.8859C8.56978 53.8859 11.0447 48.9958 15.0946 50.2715C18.9196 51.5472 11.9447 59.4139 8.56978 58.9887C5.19485 58.5635 -0.205052 55.7995 0.0199434 51.5472C0.0199434 51.5472 -0.430041 49.2084 2.94489 50.4841C6.31982 51.5472 7.4448 54.5238 8.56978 53.8859Z" fill="#6C0B1C"/>
<path d="M10.1448 44.9558C10.1448 44.9558 13.7447 40.7035 17.3446 42.6171C20.9445 44.5306 12.1697 50.909 9.01978 49.8459C5.64485 48.5703 1.36994 44.9558 2.49492 40.7035C2.49492 40.7035 2.71991 38.3648 5.64485 40.2783C8.56979 42.1918 9.01978 45.381 10.1448 44.9558Z" fill="#6C0B1C"/>
<path d="M12.1696 36.2388C12.1696 36.2388 16.6695 32.837 19.5944 35.3884C22.5194 38.1524 12.6196 42.4046 9.69465 40.7037C6.76971 38.7902 3.39477 34.3253 5.41973 30.4982C5.41973 30.4982 6.09472 28.1595 8.56967 30.7109C11.2696 33.2622 11.0446 36.4515 12.1696 36.2388Z" fill="#6C0B1C"/>
<path d="M16.8946 28.5848C16.8946 28.5848 22.0695 26.0334 24.3194 29.2226C26.7944 32.4118 16.2196 34.9632 13.5197 32.6244C10.8197 30.2857 8.56976 25.1829 11.2697 21.7811C11.2697 21.7811 12.3947 19.655 14.4196 22.6316C16.4446 25.3955 15.7696 28.3721 16.8946 28.5848Z" fill="#6C0B1C"/>
<path d="M23.1945 21.7809C23.1945 21.7809 28.8193 20.08 30.6193 23.4818C32.4193 26.8837 21.6195 27.9467 19.5945 25.1828C17.5696 22.4188 15.7696 17.1034 19.1445 14.1268C19.1445 14.1268 20.7195 12.2133 22.0695 15.4025C23.4194 18.5917 21.8445 21.5683 23.1945 21.7809Z" fill="#6C0B1C"/>
<path d="M30.1693 16.0406C30.1693 16.0406 36.2441 15.4027 37.1441 19.2298C38.2691 23.0568 27.0193 21.9938 25.4444 18.8045C23.8694 15.6153 23.4194 10.0874 27.4693 7.74859C27.4693 7.74859 29.4943 6.04768 30.1693 9.44951C31.0693 12.8513 29.0443 15.6153 30.1693 16.0406Z" fill="#6C0B1C"/>
<path d="M38.269 11.3629C38.269 11.3629 44.3438 11.5755 44.7938 15.4026C45.2438 19.2296 34.2191 16.4656 33.3191 13.2764C32.4191 10.0872 32.8691 4.3466 37.369 2.64569C37.369 2.64569 39.6189 1.37 39.6189 4.77183C39.6189 8.38628 37.144 10.725 38.269 11.3629Z" fill="#6C0B1C"/>
<path d="M47.4938 8.59907C47.4938 8.59907 53.3437 10.0874 52.8937 13.9144C52.4437 17.7415 42.3189 13.064 42.094 9.66214C41.869 6.26031 43.6689 0.732338 48.1688 0.0944948C48.1688 0.0944948 50.6438 -0.755961 49.9688 2.64587C49.2938 6.0477 46.5939 7.74861 47.4938 8.59907Z" fill="#6C0B1C"/>
<path d="M99.0181 80.2499C99.0181 80.2499 98.5681 74.0841 94.2932 73.8715C90.0183 73.6589 93.3932 84.5022 96.9931 85.3527C100.593 86.2031 106.893 85.5653 108.468 81.1004C108.468 81.1004 109.818 78.7616 105.993 78.7616C102.393 78.9742 99.9181 81.313 99.0181 80.2499Z" fill="#6C0B1C"/>
<path d="M103.743 71.9577C103.743 71.9577 102.618 66.4297 98.5681 66.6423C94.5181 66.8549 99.018 76.6352 102.618 76.8478C105.993 77.0604 111.618 75.7848 112.743 71.5325C112.743 71.5325 113.643 69.1937 110.268 69.6189C106.893 70.0442 104.643 72.8081 103.743 71.9577Z" fill="#6C0B1C"/>
<path d="M105.768 63.4534C105.768 63.4534 103.743 58.3506 99.9182 59.2011C96.0932 60.0515 101.943 68.5561 105.318 68.5561C108.693 68.3435 113.868 66.2173 114.093 61.7524C114.093 61.7524 114.543 59.4137 111.393 60.4768C108.243 61.5398 106.893 64.0912 105.768 63.4534Z" fill="#6C0B1C"/>
<path d="M106.668 54.9486C106.668 54.9486 104.193 50.0584 100.593 51.3341C96.9929 52.6098 103.518 60.4765 106.893 60.0513C110.268 59.6261 115.218 56.8621 114.993 52.6098C114.993 52.6098 115.218 50.2711 112.068 51.5467C108.918 52.6098 107.568 55.5864 106.668 54.9486Z" fill="#6C0B1C"/>
<path d="M105.093 45.8065C105.093 45.8065 101.493 41.5542 98.343 43.4678C95.1931 45.3813 103.293 51.7597 106.443 50.6967C109.593 49.421 113.868 45.8065 112.743 41.5542C112.743 41.5542 112.518 39.2155 109.818 41.129C106.668 43.2552 106.218 46.2318 105.093 45.8065Z" fill="#6C0B1C"/>
<path d="M103.068 37.3018C103.068 37.3018 98.7929 33.9 95.868 36.4514C92.943 39.2154 102.618 43.4676 105.318 41.7667C108.018 40.0658 111.393 35.3883 109.368 31.5612C109.368 31.5612 108.693 29.2225 106.218 31.7738C103.743 34.3252 104.193 37.3018 103.068 37.3018Z" fill="#6C0B1C"/>
<path d="M98.5677 29.435C98.5677 29.435 93.6178 26.8836 91.3679 30.0728C89.1179 33.262 99.2427 35.8134 101.718 33.4747C104.193 31.1359 106.443 26.0331 103.743 22.6313C103.743 22.6313 102.618 20.5052 100.818 23.4818C99.0177 26.2458 99.6927 29.435 98.5677 29.435Z" fill="#6C0B1C"/>
<path d="M92.7181 22.844C92.7181 22.844 87.3182 21.1431 85.7432 24.545C83.9432 27.9468 94.518 29.0098 96.318 26.2459C98.343 23.4819 99.9179 18.1665 96.768 15.1899C96.768 15.1899 95.193 13.2764 93.8431 16.4656C92.4931 19.6548 93.8431 22.4188 92.7181 22.844Z" fill="#6C0B1C"/>
<path d="M85.9682 17.1034C85.9682 17.1034 80.1183 16.4655 79.2183 20.08C78.3183 23.6944 88.8931 22.844 90.4681 19.6548C91.8181 16.6782 92.268 10.9376 88.4431 8.59881C88.4431 8.59881 86.4182 6.8979 85.9682 10.2997C85.0682 13.9142 87.0931 16.4655 85.9682 17.1034Z" fill="#6C0B1C"/>
<path d="M78.0932 12.4261C78.0932 12.4261 72.2433 12.6387 72.0184 16.4658C71.5684 20.2928 82.1432 17.5289 83.0431 14.3396C83.9431 11.1504 83.4931 5.40983 79.2182 3.70892C79.2182 3.70892 76.9683 2.43323 76.9683 5.83506C76.7433 9.44951 78.9932 11.7883 78.0932 12.4261Z" fill="#6C0B1C"/>
<path d="M69.3185 9.66218C69.3185 9.66218 63.6936 10.9379 64.1435 14.9775C64.5935 18.8046 74.2683 14.1271 74.4933 10.7252C74.7183 7.32342 72.9184 1.79545 68.6435 1.15761C68.6435 1.15761 66.1685 0.307149 66.8435 3.70898C67.2935 6.89819 70.2184 8.81172 69.3185 9.66218Z" fill="#6C0B1C"/>
<path d="M61.6686 31.1362C61.8936 31.1362 61.8936 31.1362 61.6686 31.1362V31.1362ZM50.1938 29.8605C49.9688 29.6479 49.5188 29.4353 49.2938 29.0101C49.5188 29.4353 49.9688 29.6479 50.1938 29.8605ZM51.5438 30.4984C51.0938 30.2858 50.6438 30.0732 50.1938 29.8605C50.6438 30.0732 51.0938 30.2858 51.5438 30.4984ZM53.3438 30.9236C52.8938 30.711 52.2188 30.4984 51.5438 30.4984C52.2188 30.711 52.6688 30.711 53.3438 30.9236ZM55.5937 31.3488C54.9187 31.1362 54.2437 31.1362 53.5688 30.9236C54.0187 31.1362 54.9187 31.1362 55.5937 31.3488ZM57.8437 31.3488C57.1687 31.3488 56.2687 31.1362 55.5937 31.1362C56.2687 31.3488 57.1687 31.3488 57.8437 31.3488ZM59.4186 31.3488C58.7436 31.3488 58.2937 31.3488 57.8437 31.3488C58.5187 31.3488 58.9686 31.3488 59.4186 31.3488ZM60.9936 31.3488H61.2186H60.9936C60.7686 31.3488 60.7686 31.3488 60.9936 31.3488ZM64.3685 30.711C64.1435 30.711 63.6936 30.711 63.4686 30.9236C63.9186 30.711 64.1435 30.711 64.3685 30.711ZM65.0435 30.2858L64.3685 30.4984L65.0435 30.2858ZM67.0685 28.5848C67.0685 28.7975 66.8435 29.0101 66.8435 29.2227C66.8435 29.0101 67.0685 28.7975 67.0685 28.5848ZM66.6185 27.7344C66.6185 27.947 66.8435 28.1596 66.8435 28.5848C67.0685 28.1596 66.8435 27.947 66.6185 27.7344ZM65.7185 26.8839C65.9435 27.0965 66.3935 27.3092 66.6185 27.7344C66.3935 27.3092 66.1685 27.0965 65.7185 26.8839ZM64.5935 26.4587C65.0435 26.6713 65.2685 26.6713 65.7185 26.8839C65.4935 26.6713 65.0435 26.4587 64.5935 26.4587ZM64.3685 26.2461C63.9185 26.0335 63.2436 25.8209 62.7936 25.8209C63.2436 26.0335 63.6935 26.0335 64.3685 26.2461ZM61.8936 25.6082H62.3436H61.8936ZM58.0687 25.3956C58.5187 25.3956 58.9686 25.3956 59.4186 25.3956C58.9686 25.3956 58.5187 25.3956 58.0687 25.3956ZM58.0687 25.3956C57.6187 25.3956 57.3937 25.3956 56.9437 25.3956H58.0687ZM53.5688 25.6082C54.2437 25.3956 55.1437 25.3956 55.8187 25.3956H55.5937C54.6937 25.3956 54.0187 25.6082 53.5688 25.6082ZM51.7688 26.0335C52.4438 25.8209 53.1188 25.6082 53.5688 25.6082C52.8938 25.8209 52.2188 25.8209 51.7688 26.0335ZM50.4188 26.6713C50.8688 26.4587 51.3188 26.2461 51.7688 26.0335C51.3188 26.2461 50.8688 26.4587 50.4188 26.6713ZM49.5188 27.3092C49.9688 27.0965 50.1938 26.8839 50.4188 26.6713C49.9688 26.8839 49.7438 27.0965 49.5188 27.3092ZM49.0688 28.1596C49.0688 27.947 49.2938 27.5218 49.5188 27.3092C49.2938 27.7344 49.0688 27.947 49.0688 28.1596ZM49.5188 29.0101C49.5188 28.7975 49.2938 28.5849 49.2938 28.1596C49.0688 28.5849 49.2938 28.7975 49.5188 29.0101Z" fill="#010101"/>
<path d="M43.2189 34.1123C42.5439 33.6873 42.0939 33.2622 41.6439 32.6246C41.8689 33.2622 42.5439 33.6873 43.2189 34.1123Z" fill="#010101"/>
<path d="M45.9191 35.3881C45.0191 34.963 44.1191 34.538 43.2191 34.1129C44.1191 34.538 45.0191 34.963 45.9191 35.3881Z" fill="#010101"/>
<path d="M49.2938 36.2378L47.9438 35.8132C47.7188 35.8132 47.7188 35.8132 47.7188 35.8132L47.2688 35.601C48.1688 36.0255 48.8438 36.2378 49.2938 36.2378Z" fill="#010101"/>
<path d="M49.5189 36.2386C49.9689 36.2386 50.1939 36.4498 50.6439 36.4498L49.5189 36.2386Z" fill="#010101"/>
<path d="M65.2687 36.6641C64.3687 36.8752 63.2437 36.8752 62.3438 36.8752C63.4687 36.8752 64.3687 36.8752 65.2687 36.6641Z" fill="#010101"/>
<path d="M69.9935 35.601C69.5435 35.601 68.8686 35.8136 68.4186 36.0262C69.0936 36.0262 69.5435 35.8136 69.9935 35.601Z" fill="#010101"/>
<path d="M72.6934 34.5381C71.7934 34.9626 70.8934 35.3872 69.9934 35.5994C71.1184 35.3872 71.7934 34.9626 72.6934 34.5381Z" fill="#010101"/>
<path d="M74.4934 33.0498C74.0434 33.4749 73.3685 33.8999 72.6935 34.325C73.3685 34.1124 74.0434 33.6874 74.4934 33.0498Z" fill="#010101"/>
<path d="M74.9433 31.7739C74.9433 32.199 74.7183 32.624 74.2683 33.0491C74.7183 32.8366 74.9433 32.4115 74.9433 31.7739Z" fill="#010101"/>
<path d="M43.2191 28.3708C43.8941 27.9463 44.5691 27.734 45.4691 27.5217H45.2441C44.3441 27.734 43.6691 27.9463 43.2191 28.3708Z" fill="#010101"/>
<path d="M41.4191 29.6471C41.8691 29.0095 42.544 28.5845 43.219 28.3719C42.544 28.5845 41.8691 29.2221 41.4191 29.6471Z" fill="#010101"/>
<path d="M40.969 31.1352C40.969 30.7101 41.194 30.0725 41.644 29.6475C41.194 30.0725 40.969 30.4976 40.969 31.1352Z" fill="#010101"/>
<path d="M41.419 32.6239C41.194 32.1989 40.969 31.5613 40.969 31.1362C40.969 31.7738 41.194 32.1989 41.419 32.6239Z" fill="#010101"/>
<path d="M37.1441 39.8531C36.2442 39.4278 35.3442 38.5774 34.6692 37.9395L34.8942 37.7269C35.5692 38.5774 36.2442 39.2152 37.1441 39.8531ZM34.8942 37.9395C35.5692 38.79 36.2442 39.4278 37.1441 39.8531C36.2442 39.4278 35.5692 38.79 34.8942 37.9395Z" fill="#010101"/>
<path d="M40.969 41.5544C39.619 41.1292 38.494 40.4913 37.144 39.8535L37.369 39.6409C38.494 40.4913 39.844 41.1292 40.969 41.5544ZM37.369 39.8535C38.494 40.4913 39.619 41.1292 40.969 41.5544C39.619 41.1292 38.494 40.4913 37.369 39.8535Z" fill="#010101"/>
<path d="M45.9189 43.042C44.3439 42.617 42.7689 42.1919 41.194 41.7668V41.5543C42.7689 41.9794 44.3439 42.4044 45.9189 43.042ZM41.194 41.5543C42.7689 41.9794 44.3439 42.4044 45.9189 42.8295C44.3439 42.617 42.7689 42.1919 41.194 41.5543Z" fill="#010101"/>
<path d="M59.8688 44.1054C55.5939 44.1054 51.544 43.6801 47.269 43.0423L45.9191 42.8297V42.6171L47.269 42.8297C47.494 42.8297 60.7688 44.9558 70.2186 42.8297L74.4935 41.7666L70.2186 42.8297C66.8437 43.8927 63.4687 44.1054 59.8688 44.1054Z" fill="#010101"/>
<path d="M69.9934 43.2544C70.2184 43.0419 70.2184 43.0419 70.2184 43.0419C71.7934 42.8294 73.1434 42.4043 74.7183 41.9792V42.1918C73.3684 42.6168 71.7934 42.8294 69.9934 43.2544ZM70.4434 43.0419C72.0184 42.8294 73.3684 42.4043 74.9433 41.9792C73.3684 42.4043 71.7934 42.8294 70.4434 43.0419Z" fill="#010101"/>
<path d="M74.9432 41.9792C76.0682 41.3414 77.4182 40.9162 78.5432 40.2783V40.4909C77.4182 41.1288 76.0682 41.554 74.9432 41.9792ZM74.9432 41.9792C76.2932 41.554 77.4182 41.1288 78.5432 40.4909C77.4182 40.9162 76.0682 41.554 74.9432 41.9792Z" fill="#010101"/>
<path d="M78.5433 40.4909C79.2183 39.853 80.1183 39.2152 80.7933 38.5774L81.0183 38.79C80.3433 39.4278 79.4433 40.0657 78.5433 40.4909ZM78.5433 40.2783C79.4433 39.853 80.1183 39.2152 80.7933 38.3647C80.1183 39.2152 79.4433 39.853 78.5433 40.2783Z" fill="#010101"/>
<path d="M81.0182 38.5776C81.2432 37.9397 81.6932 37.3019 81.6932 36.6641L81.9182 36.8767C81.6932 37.3019 81.4682 37.9397 81.0182 38.5776ZM81.0182 38.365C81.2432 38.1524 81.2432 37.9397 81.4682 37.7271C81.2432 37.9397 81.0182 38.1524 81.0182 38.365Z" fill="#010101"/>
<path d="M34.4445 33.8998L34.6695 33.6873C34.8944 33.2622 35.3444 32.8372 35.7944 32.6246C35.3444 32.8372 35.1194 33.2622 34.6695 33.6873L34.4445 33.8998Z" fill="#010101"/>
<path d="M33.9941 35.8136C33.9941 34.9632 34.2191 34.3253 34.8941 33.6875L35.3441 33.4749L35.1191 33.6875C34.4441 34.3253 33.9941 34.9632 33.9941 35.8136Z" fill="#010101"/>
<path d="M34.669 37.9397C34.219 37.3019 33.769 36.4514 33.769 35.8136L33.994 35.601C34.219 36.4514 34.444 37.3019 34.669 37.9397ZM34.219 37.0892C34.444 37.3019 34.444 37.5145 34.669 37.9397C34.669 37.5145 34.444 37.3019 34.219 37.0892Z" fill="#010101"/>
<path d="M32.4195 46.8694C31.2946 46.2315 30.1696 45.3811 29.4946 44.318C30.3946 45.3811 31.2946 46.2315 32.4195 46.8694ZM37.1444 48.7829C35.5695 48.145 33.9945 47.5072 32.6445 46.6567C33.9945 47.7198 35.5695 48.3577 37.1444 48.7829ZM43.2193 50.4838C41.1944 50.0586 39.1694 49.4207 37.3694 48.7829C39.1694 49.6333 41.1944 50.0586 43.2193 50.4838ZM43.2193 50.4838L44.7943 50.6964L43.2193 50.4838ZM45.4693 50.909L46.1443 51.1216L45.4693 50.909ZM65.2689 51.7595C64.1439 51.7595 63.0189 51.7595 61.669 51.7595C63.0189 51.9721 64.1439 51.7595 65.2689 51.7595ZM72.6937 50.909C70.4438 51.3343 67.9688 51.5469 65.4939 51.7595C67.7438 51.5469 70.2188 51.3343 72.6937 50.909ZM78.5436 49.4207C76.5187 50.0586 74.7187 50.4838 72.6937 50.909C74.7187 50.4838 76.7437 50.0586 78.5436 49.4207ZM83.0435 47.2946C81.6936 47.9324 80.1186 48.5703 78.5436 49.2081C80.1186 48.7829 81.6936 48.145 83.0435 47.2946ZM85.9685 45.1684C85.0685 46.0189 84.1685 46.6567 83.0435 47.2946C84.1685 46.8694 85.0685 46.0189 85.9685 45.1684ZM86.4185 44.318C86.1935 44.5306 86.1935 44.7432 85.9685 44.9558C86.1935 44.9558 86.1935 44.7432 86.4185 44.318ZM28.5946 41.7666C28.5946 40.9162 28.8196 40.0657 29.4946 39.4279C28.8196 40.0657 28.5946 40.9162 28.5946 41.7666ZM29.4946 44.318C28.8196 43.4675 28.5946 42.6171 28.3696 41.554C28.5946 42.6171 28.8196 43.6801 29.4946 44.318Z" fill="#010101"/>
<path d="M58.9687 60.4765H57.3937V60.2639C60.3187 60.2639 63.2436 60.2639 65.9435 60.0513V60.2639C63.6936 60.2639 61.2186 60.4765 58.9687 60.4765ZM57.3937 60.2639C60.3187 60.2639 63.0186 60.2639 65.9435 60.0513C63.2436 60.2639 60.3187 60.2639 57.3937 60.2639ZM57.3937 60.2639H56.2687H56.4937H57.3937ZM56.7187 60.2639H57.1687H56.7187ZM66.1685 60.0513C67.9685 59.6261 69.7685 59.6261 71.5684 59.2008C72.4684 58.9882 73.1434 58.9882 74.0434 58.7756C76.2933 58.3504 78.5433 57.9251 80.5683 57.0747C82.3682 56.4368 83.9432 55.799 85.5181 54.9485C85.7431 54.7359 85.9681 54.7359 86.1931 54.5233L86.6431 54.3107C87.0931 53.8855 87.5431 53.6729 87.9931 53.2476L89.7931 51.1215L87.9931 53.4603C87.5431 53.8855 87.0931 54.3107 86.6431 54.5233L86.4181 54.7359C86.1931 54.9485 85.7431 55.1612 85.5181 55.3738C83.9432 56.2242 82.3682 57.0747 80.5683 57.4999C78.3183 58.1378 76.2933 58.7756 74.0434 59.2008H73.8184C72.9184 59.4134 72.2434 59.4134 71.3434 59.6261C69.7685 59.6261 67.9685 59.8387 66.1685 60.0513ZM66.1685 60.0513C67.7435 59.8387 69.5435 59.8387 71.1184 59.4134C69.5435 59.6261 67.7435 59.8387 66.1685 60.0513ZM71.7934 59.4134C72.6934 59.2008 73.3684 59.2008 74.0434 58.9882C73.3684 59.2008 72.4684 59.2008 71.7934 59.4134ZM74.2684 58.9882C76.5183 58.563 78.7683 58.1378 80.7932 57.2873C78.5433 57.9251 76.5183 58.563 74.2684 58.9882ZM80.7932 57.2873C82.5932 56.6495 84.1682 56.0116 85.7431 55.1612C84.1682 56.0116 82.5932 56.6495 80.7932 57.2873ZM85.9681 55.1612C86.1931 54.9485 86.4181 54.9485 86.6431 54.7359L85.9681 55.1612ZM87.3181 54.3107L87.5431 54.0981L87.3181 54.3107ZM50.1939 60.0513H49.9689H49.0689V59.8387H49.7439L49.9689 60.0513H50.1939ZM49.0689 59.8387H49.7439H49.0689ZM49.0689 59.8387C46.3689 59.6261 43.894 59.2008 41.419 58.563C39.1691 58.1378 36.9191 57.4999 34.8942 56.8621C33.0942 56.2242 31.2942 55.5864 29.7193 54.5233C28.3693 53.8855 27.4693 52.8224 26.3443 51.7593C25.6694 50.9089 25.2194 50.0584 25.2194 48.9953V48.7827C25.2194 48.3575 25.2194 47.9323 25.4444 47.507V47.2944C25.2194 47.7197 25.2194 48.1449 25.2194 48.3575C25.2194 49.4206 25.6694 50.4836 26.3443 51.1215C27.2443 52.1846 28.3693 53.035 29.7193 53.8855C31.2942 54.7359 33.0942 55.5864 34.8942 56.2242C37.1441 56.8621 39.1691 57.4999 41.419 57.9251C43.894 58.3504 46.3689 58.7756 49.0689 59.2008V59.8387ZM41.419 58.563C43.894 58.9882 46.3689 59.4135 48.8439 59.8387C46.3689 59.4135 43.894 59.2008 41.419 58.563ZM34.6692 56.8621C36.6941 57.4999 38.9441 58.1378 41.194 58.563C38.9441 58.1378 36.9191 57.4999 34.6692 56.8621ZM29.4943 54.5233C31.0692 55.3738 32.8692 56.2242 34.6692 56.8621C32.8692 56.2242 31.2942 55.3738 29.4943 54.5233ZM27.4693 53.035C28.1443 53.4602 28.5943 53.8855 29.2693 54.3107C28.8193 54.0981 28.1443 53.6729 27.4693 53.035Z" fill="#010101"/>
<path d="M28.3693 62.6031C27.0193 61.7526 25.8944 60.9022 24.9944 59.6265C25.8944 60.9022 27.0193 61.7526 28.3693 62.6031ZM33.7692 64.9418C31.9692 64.304 30.1693 63.4536 28.3693 62.3905C29.9443 63.4536 31.7442 64.304 33.7692 64.9418ZM40.5191 66.8554C38.2691 66.4302 36.0192 65.7923 33.7692 64.9418C36.0192 65.7923 38.2691 66.4302 40.5191 66.8554ZM48.6189 68.1311C45.919 67.7058 43.219 67.2806 40.7441 66.8554C43.219 67.4932 45.919 67.9184 48.6189 68.1311ZM57.1687 68.7689C54.2438 68.5563 51.3189 68.3437 48.6189 68.1311C51.3189 68.3437 54.2438 68.5563 57.1687 68.7689ZM61.8936 68.5563C60.3187 68.5563 58.7437 68.5563 57.1687 68.5563C58.7437 68.5563 60.3187 68.5563 61.8936 68.5563ZM81.4683 65.5797C80.3433 65.7923 78.9933 66.2175 77.4183 66.6428C78.9933 66.4302 80.3433 66.0049 81.4683 65.5797ZM86.8681 63.2409C85.2932 64.0914 83.4932 64.7292 81.6932 65.3671C83.4932 64.9419 85.2932 64.304 86.8681 63.2409ZM90.2431 60.6896C89.3431 61.7526 88.2181 62.6031 86.8681 63.2409C88.2181 62.6031 89.3431 61.7526 90.2431 60.6896ZM91.368 57.713C91.368 58.776 90.9181 59.6265 90.2431 60.4769C90.9181 59.8391 91.368 58.776 91.368 57.713ZM24.7694 59.8391C24.0944 58.9887 23.6444 57.9256 23.6444 56.6499C23.6444 57.9256 24.0944 58.776 24.7694 59.8391Z" fill="#010101"/>
<path d="M58.5187 76.2105H56.9437V75.9978C58.5187 75.9978 60.0937 75.9978 61.6686 75.9978C60.9936 76.2105 59.8687 76.2105 58.5187 76.2105ZM57.1687 76.2105C54.4688 76.2105 51.5438 75.9979 48.8439 75.7852V75.5726C51.5438 75.7852 54.4688 75.9978 57.1687 76.2105ZM48.8439 75.7852C46.1439 75.5726 43.669 75.1474 41.194 74.5095C38.9441 74.0843 36.6941 73.4465 34.6692 72.8086C32.8692 72.1708 31.0692 71.533 29.4943 70.4699C28.3693 69.832 27.2443 68.9816 26.3443 67.9185L26.1193 67.7059C25.6694 67.068 25.4444 66.6428 25.2194 66.005C25.4444 66.6428 25.6694 67.2807 26.1193 67.7059C27.0193 68.769 28.1443 69.6194 29.4943 70.4699C31.0692 71.3203 32.8692 72.1708 34.6692 72.8086C36.9191 73.4465 38.9441 74.0843 41.194 74.5095C43.669 74.9348 46.1439 75.36 48.8439 75.7852ZM82.5932 72.596C82.5932 72.3834 82.5932 72.3834 82.5932 72.596C83.7182 71.9582 84.8432 71.5329 85.7431 70.8951C86.8681 70.2573 87.9931 69.4068 88.8931 68.3437C89.3431 67.9185 89.5681 67.2807 89.7931 66.8554C90.468 61.9653 90.243 57.0752 88.8931 52.3977C86.4181 42.1922 79.2183 33.6876 69.0935 29.4353C74.7184 31.7741 79.4433 35.3885 83.0432 40.066C85.9681 43.6805 87.9931 47.9328 89.1181 52.3977C90.243 57.0752 90.468 61.9653 90.0181 66.8554C89.7931 67.4933 89.5681 67.9185 89.1181 68.3437L88.6681 68.769C87.7681 69.6194 86.8681 70.4699 85.5181 71.1077C84.6182 71.7456 83.7182 72.1708 82.5932 72.596Z" fill="#010101"/>
<path d="M31.9694 76.848C30.8444 76.2101 29.7195 75.3597 29.0445 74.2966C29.9445 75.3597 30.8444 76.2101 31.9694 76.848ZM36.6943 78.9741C35.1194 78.3363 33.5444 77.6984 31.9694 76.848C33.5444 77.6984 35.1194 78.5489 36.6943 78.9741ZM42.5442 80.675C40.5192 80.2498 38.4943 79.612 36.6943 78.9741C38.7193 79.612 40.5192 80.2498 42.5442 80.675ZM49.5191 81.7381C47.2691 81.5255 45.0192 81.1003 42.7692 80.675C44.7942 81.1003 47.0441 81.5255 49.5191 81.7381ZM56.9439 82.1633C54.469 82.1633 51.994 81.9507 49.5191 81.7381C51.994 81.9507 54.469 82.1633 56.9439 82.1633ZM64.5938 81.9507C62.1188 82.1633 59.4189 82.1633 56.9439 82.1633C59.4189 82.1633 62.1188 82.1633 64.5938 81.9507ZM64.8188 81.9507L66.1687 81.7381L64.8188 81.9507ZM77.8685 79.612C77.4185 79.612 76.9685 79.8246 76.2935 80.0372C76.7435 79.8246 77.4185 79.612 77.8685 79.612ZM82.3684 77.4858C81.0184 78.1237 79.4435 78.7615 77.8685 79.3993C79.4435 78.9741 81.0184 78.3363 82.3684 77.4858ZM85.2934 75.3597C84.3934 76.2101 83.4934 77.0606 82.3684 77.4858C83.4934 76.848 84.3934 76.2101 85.2934 75.3597ZM85.5183 74.9344L85.2934 75.1471C85.2934 75.1471 85.2933 75.1471 85.5183 74.9344ZM29.0445 74.5092C28.8195 74.2966 28.8195 74.084 28.5945 74.084C28.8195 74.2966 29.0445 74.2966 29.0445 74.5092Z" fill="#010101"/>
<path d="M36.4691 82.1633C35.7941 81.7381 35.3442 81.5254 34.8942 81.1002C35.5692 81.5254 36.0191 81.9507 36.4691 82.1633ZM40.2941 83.8642C38.9441 83.439 37.8191 82.8011 36.4691 82.1633C37.8191 82.8011 38.9441 83.439 40.2941 83.8642ZM45.244 85.1399C43.669 84.7146 42.094 84.2894 40.5191 83.8642C42.094 84.2894 43.669 84.9273 45.244 85.1399ZM50.8689 85.9903C49.0689 85.7777 47.0439 85.5651 45.244 85.1399C47.0439 85.5651 49.0689 85.7777 50.8689 85.9903ZM56.9437 86.4156C54.9188 86.4156 52.8938 86.203 50.8689 85.9903C52.8938 86.203 54.9188 86.4156 56.9437 86.4156ZM63.2436 86.203C61.2186 86.4156 58.9687 86.4156 56.9437 86.4156C59.1937 86.4156 61.2186 86.4156 63.2436 86.203ZM63.4686 86.203C63.9186 86.203 68.8685 85.5651 69.3185 85.3525C69.3185 85.5651 63.9186 86.203 63.4686 86.203ZM74.2684 84.2894C72.9184 84.7147 71.3434 85.1399 69.9935 85.3525C69.7685 85.3525 69.5435 85.3525 69.3185 85.5651C70.8935 85.1399 72.4684 84.7147 74.2684 84.2894ZM77.8683 82.5885C76.7433 83.2264 75.6184 83.6516 74.2684 84.0768C75.3934 83.8642 76.7433 83.2264 77.8683 82.5885ZM78.9933 81.7381C78.7683 81.9507 78.3183 82.1633 77.8683 82.5885C78.3183 82.3759 78.7683 82.1633 78.9933 81.7381Z" fill="#010101"/>
<path d="M45.0189 86.8411L44.1189 86.4159H44.3439C44.5689 86.6285 44.7939 86.8411 45.0189 86.8411ZM48.6188 87.9042C47.4938 87.6916 46.3689 87.2663 45.2439 87.0537C46.3689 87.2663 47.4938 87.6916 48.6188 87.9042ZM52.6687 88.542C51.3187 88.3294 49.9688 88.1168 48.6188 87.9042C49.7438 88.1168 51.0938 88.3294 52.6687 88.542ZM56.9436 88.7546C55.3687 88.7546 54.0187 88.542 52.6687 88.542C54.0187 88.542 55.3687 88.7546 56.9436 88.7546ZM61.4436 88.542C59.8686 88.7547 58.5186 88.7546 56.9436 88.7546C58.2936 88.7546 59.8686 88.7547 61.4436 88.542ZM61.4436 88.542C62.3435 88.542 64.8185 88.1168 65.7185 87.9042L64.1435 88.1168C63.2435 88.3294 62.3435 88.542 61.4436 88.542ZM69.0934 87.2663C67.9684 87.6916 66.8434 87.9042 65.7185 88.1168C66.8434 87.9042 67.9684 87.479 69.0934 87.2663ZM69.5434 87.0537L69.0934 87.2663L69.5434 87.0537Z" fill="#010101"/>
<path d="M31.9694 76.848C31.2944 75.7849 30.6194 74.5092 30.1695 73.2335C30.6194 74.5092 31.2944 75.7849 31.9694 76.848C33.0944 78.7615 34.6694 80.4624 36.4693 81.9507C37.3693 82.8012 38.2693 83.439 39.3943 84.0769C38.2693 83.439 37.3693 82.8012 36.4693 81.9507C34.6694 80.675 33.3194 78.9741 31.9694 76.848ZM50.419 29.8602C52.894 28.7971 55.3689 27.9467 58.0689 27.3088C55.3689 27.7341 52.894 28.5845 50.419 29.8602C47.9441 30.9233 45.4691 32.4116 43.4442 34.1125C41.1942 35.8134 39.1693 37.7269 37.5943 39.8531C35.7943 41.9792 34.2194 44.318 32.8694 46.6567C31.5194 48.9955 30.6194 51.5469 29.7195 54.3109C29.0445 56.8622 28.5945 59.6262 28.5945 62.3902V62.6028C28.5945 65.1542 28.8195 67.7056 29.4945 70.2569C29.7195 71.1074 29.9445 71.9579 30.1695 72.5957C29.9445 71.9579 29.7195 71.1074 29.4945 70.2569C28.8195 67.7056 28.5945 65.1542 28.5945 62.6028C28.5945 59.8388 29.0445 57.2875 29.7195 54.5235C30.3944 51.9721 31.5194 49.4207 32.8694 46.8694C34.2194 44.5306 35.7943 42.1918 37.5943 40.0657C39.3943 37.9396 41.4192 36.026 43.4442 34.3251C45.4691 32.4116 47.7191 30.9233 50.419 29.8602Z" fill="#010101"/>
<path d="M41.1939 41.5545C42.3189 39.6409 43.6688 37.94 45.0188 36.4517C43.4438 37.94 42.3189 39.6409 41.1939 41.5545C39.6189 43.8932 38.494 46.232 37.369 48.7833C36.244 51.3347 35.344 53.8861 34.669 56.6501C33.994 59.4141 33.769 61.9654 33.769 64.7294C33.769 67.2808 33.994 69.8321 34.444 72.3835C34.894 74.5097 35.569 76.6358 36.694 78.762C37.594 80.4629 38.9439 82.1638 40.2939 83.4395C41.6439 84.7152 43.2189 85.7782 45.0188 86.4161L45.6938 86.6287C45.4688 86.6287 45.2438 86.4161 45.0188 86.4161C43.2189 85.7782 41.6439 84.7152 40.5189 83.4395C39.1689 81.9512 37.819 80.4629 36.919 78.762C35.794 76.8484 35.119 74.7223 34.669 72.3835C34.219 69.8321 33.994 67.2808 33.994 64.7294C33.994 61.9654 34.444 59.2014 34.894 56.6501C35.569 53.8861 36.244 51.3347 37.369 48.7833C38.269 46.232 39.6189 43.8932 41.1939 41.5545ZM45.2438 36.0265C45.4688 35.8139 45.6938 35.6012 45.9188 35.3886L45.2438 36.0265ZM51.7687 30.2859C53.7936 29.0102 55.8186 27.9471 58.0686 27.0967C55.8186 27.9471 53.7936 29.0102 51.7687 30.2859C49.9687 31.5616 48.1688 32.8373 46.5938 34.5382C48.3938 33.0499 49.9687 31.5616 51.7687 30.2859Z" fill="#010101"/>
<path d="M49.5189 36.2386L49.7439 35.8134C49.7439 36.026 49.5189 36.026 49.5189 36.2386C48.1689 38.3648 47.0439 40.7035 45.9189 42.8297C44.794 45.1684 43.894 47.7198 43.219 50.2712C42.544 52.8226 41.869 55.5865 41.419 58.3505C40.969 61.1145 40.519 63.8785 40.519 66.6425C40.519 69.1939 40.519 71.7452 40.969 74.084C41.194 76.2101 41.869 78.1237 42.544 80.2498C43.219 81.9507 43.894 83.439 45.019 84.7147C45.9189 85.7778 47.0439 86.8409 48.3939 87.4787C48.8439 87.6913 49.5189 87.9039 49.9689 88.1165C49.5189 87.9039 48.8439 87.6913 48.3939 87.4787C47.0439 86.8409 45.9189 85.9904 45.019 84.7147C43.894 83.439 42.994 81.7381 42.544 80.2498C41.869 78.3363 41.419 76.2101 40.969 74.084C40.519 71.5326 40.519 68.9812 40.519 66.6425C40.519 63.8785 40.744 61.1145 41.194 58.3505C41.644 55.5865 42.319 53.0352 42.994 50.2712C43.669 47.7198 44.569 45.1684 45.6939 42.8297C46.8189 40.7035 47.9439 38.3648 49.5189 36.2386ZM53.5688 30.9233C54.9188 29.435 56.4937 28.3719 58.0687 27.3088C56.2687 28.1593 54.9188 29.435 53.5688 30.9233C53.1188 31.3485 52.6688 31.9864 52.2188 32.4116C52.6688 31.9864 53.1188 31.3485 53.5688 30.9233Z" fill="#010101"/>
<path d="M49.0689 59.6262C49.0689 59.4136 49.0689 59.4136 49.0689 59.201C48.8439 59.4136 48.8439 59.6262 49.0689 59.6262C48.6189 62.3902 48.6189 65.1542 48.3939 67.9182C48.3939 70.6822 48.3939 73.2335 48.6189 75.3597C48.8439 77.2732 49.0689 79.3993 49.2939 81.3129C49.5189 82.8012 49.9689 84.2895 50.6439 85.5652C51.0939 86.4156 51.5439 87.2661 52.4438 87.9039C52.6688 88.1165 53.1188 88.3291 53.5688 88.3291C53.1188 88.3291 52.6688 88.1165 52.4438 87.9039C51.7689 87.2661 51.0939 86.4156 50.8689 85.5652C50.1939 84.2895 49.9689 82.8012 49.5189 81.3129C49.0689 79.3993 48.8439 77.2732 48.8439 75.3597C48.6189 73.0209 48.6189 70.6822 48.6189 67.9182C48.6189 65.3668 48.8439 62.6028 49.0689 59.6262ZM55.5938 31.3485C56.2688 29.8602 56.9438 28.5845 58.0687 27.3088C57.1688 28.5845 56.2688 29.8602 55.5938 31.3485C55.3688 31.7737 55.1438 32.4116 54.9188 32.8368C55.1438 32.199 55.3688 31.7737 55.5938 31.3485Z" fill="#010101"/>
<path d="M57.3936 68.556C57.3936 67.0677 57.3936 65.792 57.3936 64.3037V64.0911C57.3936 65.5794 57.1686 67.0677 57.3936 68.556C57.1686 71.32 57.1686 73.8714 57.1686 75.9975V76.2101C57.1686 78.5489 57.1686 80.4624 57.1686 82.1633C57.1686 83.8643 57.1686 85.3526 57.1686 86.4156C57.1686 87.4787 57.1686 88.3292 57.1686 88.7544C57.1686 88.967 57.1686 88.967 57.1686 89.1796C57.1686 89.1796 57.1686 88.967 57.1686 88.7544C57.1686 88.3292 57.1686 87.4787 57.1686 86.4156C57.1686 85.3526 57.1686 83.8643 57.1686 82.1633C57.1686 80.4624 57.1686 78.5489 57.1686 76.2101C57.1686 73.8714 57.1686 71.32 57.3936 68.556ZM57.3936 63.8785V63.6659V63.8785C57.1686 63.8785 57.3936 63.8785 57.3936 63.8785ZM57.3936 60.6893V60.4767V60.6893ZM57.3936 60.2641C57.3936 59.6262 57.3936 58.9884 57.3936 58.1379V57.9253C57.3936 58.7758 57.3936 59.4136 57.3936 60.2641ZM57.3936 57.2875C57.3936 55.7992 57.3936 54.3109 57.3936 52.8226C57.3936 54.3109 57.3936 55.7992 57.3936 57.2875ZM57.3936 52.8226V52.3973V52.8226C57.3936 52.6099 57.3936 52.6099 57.3936 52.8226ZM57.8436 31.3485C57.8436 29.6476 57.8436 28.3719 57.8436 27.3088C57.8436 28.1593 57.8436 29.6476 57.8436 31.3485C57.8436 31.9864 57.8436 32.4116 57.8436 33.0494V32.4116V31.3485Z" fill="#010101"/>
<path d="M64.8187 81.9512C65.0437 80.8881 65.2687 80.0376 65.4937 78.762C65.2687 79.825 65.0437 80.8881 64.8187 81.9512C64.3687 83.4395 63.9187 84.9278 63.2437 86.2035C62.7937 87.0539 62.3438 87.9044 61.4438 88.5422C60.9938 88.7548 60.7688 88.9674 60.3188 88.9674C60.7688 88.9674 61.2188 88.7548 61.4438 88.5422C62.3438 87.9044 62.7937 87.0539 63.2437 86.2035C63.9187 84.9278 64.5937 83.4395 64.8187 81.9512ZM66.3937 64.3042C66.3937 64.0916 66.3937 64.0916 66.3937 63.8789C66.3937 64.0916 66.3937 64.3042 66.3937 64.5168C66.1687 64.5168 66.3937 64.3042 66.3937 64.3042ZM66.3937 63.4537C66.3937 63.2411 66.3937 63.2411 66.3937 63.0285C66.1687 63.2411 66.1687 63.4537 66.3937 63.4537ZM66.1687 60.0519C66.1687 59.8393 66.1687 59.6267 66.1687 59.2014V60.0519C66.1687 60.9024 66.1687 61.7528 66.1687 62.6033C66.3937 61.7528 66.1687 60.9024 66.1687 60.0519ZM65.4937 51.7599C65.4937 50.9095 65.2687 50.059 65.0437 49.2086C65.0437 50.059 65.2687 50.9095 65.4937 51.7599C65.7187 53.4609 65.7187 54.9492 65.9437 56.6501C65.9437 57.0753 65.9437 57.5005 66.1687 58.1384C65.9437 56.0122 65.7187 53.8861 65.4937 51.7599ZM64.3687 44.7437C64.3687 44.9563 64.3687 44.7437 64.3687 44.7437V44.7437ZM64.1437 43.6806C64.1437 43.468 64.1437 43.468 64.1437 43.2554V43.0428C63.9187 43.468 64.1437 43.6806 64.1437 43.6806C64.1437 43.8932 64.1437 43.6806 64.1437 43.6806ZM62.5688 36.8769C62.5688 36.4517 62.3438 36.2391 62.3438 35.8139C62.3438 36.2391 62.3438 36.4517 62.5688 36.8769C62.5688 37.3022 62.7937 37.5148 62.7937 37.94C62.7937 37.7274 62.5688 37.3022 62.5688 36.8769ZM61.4438 33.2625L61.2188 32.8373C61.2188 33.0499 61.2188 33.0499 61.2188 33.0499C61.2188 33.2625 61.4438 33.4751 61.4438 33.2625ZM60.7688 31.5616L60.5438 31.349L60.7688 31.5616ZM60.3188 31.1363V30.9237V31.1363ZM60.0938 30.7111C59.6438 29.4354 58.9688 28.3724 58.0688 27.0967C58.9688 28.3724 59.6438 29.648 60.0938 30.7111Z" fill="#010101"/>
<path d="M63.9187 88.5418H64.3687C64.5937 88.5418 64.8187 88.3291 65.0437 88.3291H65.2687C64.8187 88.5418 64.3687 88.5418 63.9187 88.5418ZM65.7187 88.1165C66.8437 87.6913 67.7436 86.8409 68.6436 85.9904C68.6436 85.9904 68.6436 85.9904 68.6436 85.7778C68.6436 85.7778 68.6436 85.7778 68.6436 85.5652C69.7686 83.6516 70.6686 81.7381 71.5686 79.612C73.3685 75.1471 74.2685 70.2569 74.0435 65.5794C74.0435 63.4533 73.8185 61.3271 73.5935 59.201V58.9884C73.1435 56.2244 72.6935 53.673 72.0186 50.909C71.3436 48.3577 70.4436 45.8063 69.5436 43.4675C70.6686 46.0189 71.3436 48.3577 72.0186 50.909C72.6935 53.4604 73.3685 56.2244 73.8185 58.9884C74.0435 61.1145 74.2685 63.2407 74.2685 65.3668C74.4935 70.2569 73.5935 74.9345 71.7936 79.3994C71.1186 81.5255 69.9936 83.439 68.8686 85.3526C68.8686 85.5652 68.6436 85.5652 68.6436 85.7778C67.9686 86.8409 67.0687 87.4787 65.7187 88.1165ZM70.8936 45.3811C71.5686 47.2946 72.0186 48.9955 72.4686 50.6964C73.1435 53.2478 73.8185 56.0118 74.0435 58.7758C74.2685 60.4767 74.4935 61.965 74.4935 63.6659C74.4935 61.965 74.2685 60.4767 74.2685 58.7758C73.8185 56.0118 73.3685 53.4604 72.6936 50.6964C72.0186 48.9955 71.5686 47.082 70.8936 45.3811ZM65.9437 35.1756L65.2687 34.5377C65.4937 34.7503 65.7187 34.963 65.9437 35.1756ZM65.0437 34.1125C64.8187 33.6873 64.3687 33.262 64.1437 33.0494V32.8368V33.0494V33.262C64.3687 33.262 64.5937 33.6873 65.0437 34.1125ZM63.2437 31.7737C63.2437 31.7737 63.0187 31.7737 63.2437 31.7737V31.7737ZM62.3438 30.7107C60.9938 29.435 59.6438 28.1593 58.0688 27.3088C59.6438 28.1593 60.9938 29.435 62.3438 30.7107Z" fill="#010101"/>
<path d="M78.0934 79.3998L78.5434 78.5494L78.0934 79.3998C76.9685 81.3133 75.8435 82.8016 74.2685 84.0773C72.9185 85.353 71.1186 86.4161 69.3186 87.0539L68.8686 87.2665L69.3186 87.0539C71.1186 86.4161 72.6935 85.353 74.2685 84.0773C75.8435 82.8016 77.1935 81.1007 78.0934 79.3998ZM64.3687 30.4985C64.1437 30.4985 64.3687 30.4985 64.3687 30.4985C66.3937 31.9868 68.4186 33.6877 69.9936 35.6013C71.7936 37.5148 73.3685 39.6409 74.7185 41.9797C76.0685 44.3184 77.4185 46.6572 78.3184 49.2086C79.2184 51.7599 80.1184 54.3113 80.5684 57.0753C81.0184 59.8393 81.2434 62.3907 81.2434 65.1547C81.2434 66.2177 81.2434 67.2808 81.0184 68.1312C81.2434 67.0682 81.2434 66.0051 81.2434 64.942C81.2434 62.178 81.0184 59.4141 80.5684 56.8627C80.1184 54.0987 79.2184 51.5473 78.3184 48.996C77.4185 46.4446 76.0685 44.1058 74.7185 41.7671C73.3685 39.4283 71.7936 37.5148 69.9936 35.3886C68.4186 33.6877 66.3937 31.9868 64.3687 30.4985ZM63.2437 29.8607L63.0187 29.648L63.2437 29.8607ZM62.1188 29.0102C60.7688 28.3724 59.4188 27.7345 58.0688 27.0967C59.4188 27.7345 60.7688 28.3724 62.1188 29.0102Z" fill="#010101"/>
<path d="M72.6936 34.3251C71.7936 33.6873 70.8936 33.0494 69.9936 32.4116C70.8936 33.0494 71.7936 33.6873 72.6936 34.3251C74.9435 36.2386 76.7435 38.1522 78.5434 40.2783C80.3434 42.4045 81.6934 44.7432 83.0433 47.2946C84.1683 49.846 85.2933 52.3973 85.9683 54.9487C86.6433 57.5001 86.8683 60.2641 86.8683 63.0281C86.8683 65.5794 86.4183 68.1308 85.7433 70.6822C85.0683 73.0209 83.9433 75.1471 82.5934 77.0606C81.2434 78.9741 79.6684 80.675 77.8684 82.1633C76.9685 82.8012 76.0685 83.439 75.1685 84.0769C76.0685 83.439 76.9685 82.8012 77.8684 82.1633C79.6684 80.675 81.2434 78.9741 82.5934 77.0606C83.9433 75.1471 85.0683 72.8083 85.7433 70.6822C86.4183 68.1308 86.8683 65.5794 86.8683 63.0281C86.8683 60.2641 86.6433 57.5001 85.9683 54.9487C85.2933 52.3973 84.3933 49.846 83.0433 47.2946C81.6934 44.7432 80.3434 42.6171 78.5434 40.2783C76.7435 38.1522 74.7185 36.2386 72.6936 34.3251ZM63.0187 28.7971C61.4438 28.1593 59.8688 27.5215 58.0688 27.3088C59.8688 27.5215 61.4438 28.1593 63.0187 28.7971Z" fill="#010101"/>
<path d="M69.9936 27.7326L69.5436 27.5204L70.4436 27.7326H69.9936ZM65.7187 26.8835C63.2437 26.6713 60.5438 26.6713 58.0688 27.3081C60.5438 26.6713 63.0188 26.6713 65.7187 26.8835C66.6187 26.8835 67.5187 27.0958 68.4186 27.3081C67.5187 27.0958 66.6187 26.8835 65.7187 26.8835Z" fill="#010101"/>
<path d="M66.3937 26.4581C65.7187 26.2458 65.0437 26.2458 64.3687 26.2458C65.0437 26.2458 65.7187 26.4581 66.3937 26.4581ZM63.9187 26.2458C61.8938 26.2458 59.8688 26.6704 58.0688 27.3072C59.8688 26.6704 61.8938 26.2458 63.9187 26.2458Z" fill="#010101"/>
<path d="M62.3438 25.8207C61.8938 25.8207 61.4438 25.8207 61.2188 26.0332C61.6688 25.8207 61.8938 25.8207 62.3438 25.8207H62.7937C62.5688 25.8207 62.5688 25.8207 62.3438 25.8207ZM61.2188 26.0332C60.0938 26.2457 59.1938 26.6708 58.0688 27.3084C58.9688 26.6708 60.0938 26.2457 61.2188 26.0332Z" fill="#010101"/>
<path d="M60.0938 25.6078C59.1938 26.033 58.5188 26.6709 58.0688 27.3087C58.5188 26.4582 59.1938 26.033 60.0938 25.6078Z" fill="#010101"/>
<path d="M55.3688 25.3956H55.5938H55.3688ZM55.5938 25.3956C56.4938 25.8209 57.3937 26.4587 58.0687 27.3092C57.3937 26.4587 56.7188 25.8209 55.5938 25.3956Z" fill="#010101"/>
<path d="M53.3437 25.6078C54.9187 25.8203 56.4937 26.2454 57.8436 27.0955C56.7187 26.4579 55.1437 25.8203 53.3437 25.6078C53.1187 25.6078 52.6687 25.6078 52.2188 25.6078C52.6687 25.6078 53.1187 25.6078 53.3437 25.6078Z" fill="#010101"/>
<path d="M46.369 26.8827C46.594 26.8827 46.369 26.8827 46.369 26.8827V26.8827ZM49.5189 26.2458H49.9689H49.5189ZM51.7689 26.2458C54.0189 26.2458 56.0438 26.6704 58.0688 27.3072C56.0438 26.4581 53.7939 26.2458 51.7689 26.2458C51.3189 26.2458 50.8689 26.2458 50.4189 26.2458C50.6439 26.2458 51.0939 26.2458 51.7689 26.2458Z" fill="#010101"/>
<path d="M43.2192 28.372C43.8942 28.1594 44.7941 27.9467 45.4691 27.7341C44.7941 27.7341 43.8942 27.9467 43.2192 28.372C42.0942 28.7972 40.9692 29.2224 39.8442 29.8603C40.7442 29.2224 41.8692 28.7972 43.2192 28.372ZM45.4691 27.5215L45.9191 27.3089L45.4691 27.5215ZM50.194 26.6711C52.894 26.4584 55.3689 26.6711 57.8439 27.0963C55.5939 26.6711 52.894 26.6711 50.194 26.6711C48.8441 26.6711 47.4941 26.8837 46.1441 27.3089C47.4941 27.0963 48.8441 26.8837 50.194 26.6711Z" fill="#010101"/>
<path d="M34.8944 33.6872C36.0194 32.8368 37.1444 32.1989 38.2694 31.3485C36.9194 31.9863 35.7944 32.8368 34.8944 33.6872C33.0945 34.9629 31.7445 36.4512 30.3945 38.1521V38.3648C31.5195 36.4512 33.0945 34.9629 34.8944 33.6872ZM49.5191 27.5214C52.4441 27.0962 55.369 27.0962 58.069 27.3088C55.144 26.8836 52.2191 27.0962 49.5191 27.5214C46.8192 27.9467 44.1193 28.5845 41.6443 29.6476C40.5193 30.0728 39.3944 30.7106 38.4944 31.1359C39.6194 30.498 40.5193 30.0728 41.6443 29.6476C44.1193 28.5845 46.5942 27.734 49.5191 27.5214Z" fill="#010101"/>
<path d="M49.0689 28.1593C46.144 28.7971 43.444 29.8602 40.9691 31.1359C38.4941 32.4116 36.2442 33.8999 33.9942 35.6008C31.9692 37.3017 30.1693 39.4279 28.5943 41.554C27.0193 43.6801 25.8944 46.0189 24.9944 48.5703C24.0944 51.1216 23.6444 53.673 23.6444 56.437C23.6444 53.673 24.0944 51.1216 24.9944 48.5703C25.8944 46.0189 27.0193 43.6801 28.5943 41.554C30.1693 39.4279 31.9692 37.3017 33.9942 35.6008C36.0192 33.8999 38.4941 32.199 40.9691 31.1359C43.444 29.8602 46.144 28.7971 49.0689 28.1593C51.9938 27.5215 54.9188 27.3088 58.0687 27.3088C55.1438 27.3088 51.9938 27.5215 49.0689 28.1593Z" fill="#010101"/>
<path d="M62.3438 30.4984C62.3438 30.4984 62.1188 30.2858 62.3438 30.4984C62.1188 30.4984 62.1188 30.4984 62.3438 30.4984C62.1188 30.4984 62.1188 30.4984 62.3438 30.4984C62.1188 30.4984 62.3438 30.4984 62.3438 30.4984ZM60.9938 30.711C60.9938 30.711 60.7688 30.4984 60.9938 30.711C60.7688 30.4984 60.7688 30.4984 60.9938 30.711C60.7688 30.711 60.9938 30.711 60.9938 30.711ZM65.7188 28.5848C65.7188 28.5848 65.4938 28.5848 65.7188 28.5848C65.4938 28.5848 65.7188 28.5848 65.7188 28.5848ZM61.2188 30.4984C60.9939 30.4984 61.2188 30.4984 61.2188 30.4984V30.4984ZM65.4937 28.5848C65.2688 28.5848 65.2688 28.5848 65.4937 28.5848V28.5848ZM60.5439 30.4984C60.3189 30.4984 60.0939 30.4984 60.0939 30.4984C60.3189 30.4984 60.3189 30.4984 60.5439 30.4984C60.3189 30.4984 60.3189 30.4984 60.3189 30.4984H60.0939C60.0939 30.4984 60.0939 30.4984 60.0939 30.711C60.0939 30.711 60.5439 30.711 60.5439 30.4984ZM61.8938 30.4984C61.8938 30.4984 61.6688 30.2858 61.8938 30.4984C61.8938 30.2858 61.8938 30.2858 61.8938 30.4984C61.6688 30.2858 61.6688 30.2858 61.4438 30.2858V30.4984H61.8938C61.6688 30.4984 61.8938 30.4984 61.8938 30.4984ZM64.8188 27.0966C64.8188 26.8839 64.8188 26.8839 64.8188 27.0966V27.0966ZM65.0438 28.3722H65.2688H65.0438ZM61.4438 30.2858C61.4438 30.0732 61.4438 30.0732 61.4438 30.2858L61.2188 30.0731C60.9939 30.2858 61.2188 30.2858 61.4438 30.2858ZM60.3189 25.3956C60.5439 25.3956 60.7688 25.3956 60.7688 25.3956H60.3189ZM61.4438 30.0731C61.4438 29.8605 61.2188 29.8605 61.4438 30.0731C61.2188 29.8605 61.2188 29.8605 61.4438 30.0731C61.2188 30.0731 61.2188 30.0731 61.4438 30.0731ZM64.1438 27.0966C64.1438 27.0966 64.3688 27.0966 64.1438 27.0966C64.3688 26.8839 64.3688 27.0966 64.1438 27.0966ZM65.0438 27.3092C65.0438 27.3092 64.8188 27.3092 65.0438 27.3092V27.3092ZM64.5938 27.0966C64.3688 27.0966 64.3688 27.0966 64.5938 27.0966C64.3688 27.3092 64.3688 27.0966 64.5938 27.0966C64.3688 27.0966 64.3688 27.0966 64.5938 27.0966C64.3688 27.0966 64.3688 27.3092 64.5938 27.0966C64.3688 27.3092 64.5938 27.3092 64.5938 27.0966C64.8188 27.3092 64.8188 27.3092 65.0438 27.3092C65.0438 27.3092 65.0438 27.3092 64.8188 27.3092C65.0438 27.3092 65.2688 27.3092 65.2688 27.3092H65.0438H65.2688C65.2688 27.3092 65.2688 27.3092 65.0438 27.3092C65.2688 27.3092 65.2688 27.3092 65.4937 27.3092C65.7187 27.3092 65.7188 27.3092 65.9438 27.3092L65.0438 27.0966H64.8188C65.0438 27.0966 65.0438 27.0966 65.2688 27.0966C65.2688 27.0966 65.0438 27.0966 64.8188 27.0966C64.8188 27.0966 64.8188 27.0966 64.5938 27.0966H64.3688H64.1438C64.8188 27.0966 64.5938 26.8839 64.5938 27.0966ZM63.4688 26.6713H63.2438C63.2438 26.6713 63.2438 26.6713 63.4688 26.6713C63.2438 26.6713 63.2438 26.6713 63.2438 26.6713H63.4688C63.6938 26.6713 63.6938 26.6713 63.4688 26.6713ZM62.5688 26.4587C62.5688 26.4587 62.7938 26.4587 62.5688 26.4587C62.7938 26.2461 62.5688 26.2461 62.5688 26.4587ZM60.7688 25.8209H61.2188C61.2188 25.8209 61.2188 25.8209 61.4438 25.8209H60.7688ZM62.3438 26.4587C62.5688 26.4587 62.5688 26.4587 62.3438 26.4587V26.4587ZM62.5688 26.4587H62.7938H62.5688C62.7938 26.4587 62.7938 26.4587 62.5688 26.4587ZM62.7938 26.4587C62.5688 26.4587 62.5688 26.4587 62.7938 26.4587C62.5688 26.4587 62.5688 26.4587 62.7938 26.4587L63.2438 26.6713C63.2438 26.6713 63.2438 26.6713 63.0188 26.6713H63.2438C63.2438 26.6713 63.2438 26.6713 63.0188 26.6713C62.7938 26.6713 63.0188 26.6713 63.0188 26.6713L62.7938 26.4587ZM69.0937 33.475C68.8687 33.475 68.8687 33.475 69.0937 33.475C68.8687 33.475 69.0937 33.475 69.0937 33.475ZM67.9687 29.8605C67.7437 29.8605 67.7437 29.8605 67.7437 29.8605H67.5187C67.5187 29.8605 67.5187 29.8605 67.7437 29.8605C67.7437 29.8605 67.7437 29.8605 67.9687 29.8605ZM61.4438 31.1362C61.4438 31.1362 61.2188 30.9236 61.4438 31.1362C61.2188 30.9236 61.4438 30.9236 61.4438 31.1362ZM62.1188 30.2858C62.1188 30.2858 62.3438 30.2858 62.1188 30.2858V30.2858ZM62.3438 30.0731C62.3438 30.0731 62.1188 30.0731 62.3438 30.0731C62.1188 29.8605 62.3438 30.0731 62.3438 30.0731ZM62.1188 29.8605C62.1188 29.8605 61.8938 29.8605 62.1188 29.8605C61.8938 29.8605 61.8938 29.8605 62.1188 29.8605C61.8938 29.6479 61.8938 29.6479 62.1188 29.8605ZM62.3438 29.8605C62.1188 29.8605 62.1188 29.6479 62.1188 29.6479L62.3438 29.8605ZM63.2438 28.5848C63.4688 28.5848 63.4688 28.5848 63.2438 28.5848V28.5848ZM64.1438 27.947C63.9188 27.947 63.9188 27.947 64.1438 27.947C63.4688 27.947 63.4688 27.947 63.2438 28.1596C63.2438 28.1596 63.2438 28.3722 63.2438 28.5848H63.4688H63.6938H63.4688C63.4688 28.5848 63.6938 28.5848 63.6938 28.7975H63.4688C63.2438 28.7975 63.2438 28.7975 63.2438 28.7975C63.2438 28.7975 63.2438 28.7975 63.2438 29.0101C62.1188 29.0101 62.1188 29.0101 62.1188 29.2227L61.8938 29.4353C61.8938 29.4353 61.8938 29.4353 62.3438 29.6479C62.1188 29.6479 62.1188 29.4353 61.8938 29.4353C62.1188 29.8605 62.1188 29.8605 62.3438 29.8605C62.5688 30.0732 62.7938 29.6479 63.0188 30.0731C62.7938 30.0731 62.7938 30.0731 62.7938 30.0731C62.7938 30.0731 62.7938 30.0732 63.0188 30.2858C62.7938 30.4984 62.7938 30.4984 62.7938 30.4984C62.3438 30.4984 62.1188 30.4984 62.1188 30.4984L62.3438 30.711H62.1188V30.4984C62.1188 30.2858 62.1188 30.2858 61.8938 30.2858H61.6688C61.6688 30.2858 61.6688 30.2858 61.6688 30.4984H61.2188C60.9939 30.711 61.6688 30.9236 61.6688 30.9236C61.8938 30.9236 61.8938 30.9236 61.8938 30.711L62.1188 30.9236H62.3438C62.3438 30.9236 62.3438 30.9236 62.1188 30.4984C62.1188 30.4984 62.3438 30.4984 62.3438 30.711C62.3438 30.9236 62.3438 30.711 62.3438 30.711C62.3438 31.1362 63.0188 30.9236 63.2438 30.9236C63.4688 30.9236 63.6938 30.9236 63.4688 30.711C63.2438 30.2858 62.7938 30.9236 62.3438 30.711C62.3438 30.4984 62.7938 30.4984 63.0188 30.4984C63.0188 30.4984 63.0188 30.4984 63.2438 30.4984C63.2438 30.2858 63.2438 30.2858 63.0188 30.2858V30.0731C63.0188 29.8605 62.7938 29.4353 62.7938 29.2227C62.7938 29.2227 62.7938 29.2227 62.7938 29.0101C62.7938 29.0101 62.7938 29.0101 63.0188 29.2227V29.4353C63.2438 29.4353 63.2438 29.4353 63.2438 29.6479C63.2438 29.8605 63.0188 29.8605 63.2438 30.0731H63.4688C63.6938 30.0731 63.9188 30.2858 64.1438 30.2858C64.1438 30.0732 64.5938 30.0732 64.8188 30.2858L65.2688 30.4984C65.2688 30.4984 65.2688 30.4984 65.4937 30.4984L65.7188 30.711L65.9438 30.9236C65.9438 30.9236 66.3937 31.3488 66.6187 31.3488C66.6187 31.3488 66.6187 31.3488 66.3937 31.1362L66.8437 31.3488C66.6187 31.3488 66.6187 31.3488 66.6187 31.3488C66.6187 31.3488 66.8437 31.3488 66.8437 31.5614H67.0687H67.2937C67.5187 31.3488 67.2937 31.3488 67.0687 31.3488C67.2937 31.3488 67.5187 31.5614 67.7437 31.7741C67.7437 31.7741 67.7437 31.7741 67.5187 31.7741C67.5187 31.7741 67.7437 32.4119 67.9687 32.4119C67.9687 32.6245 67.9687 32.6245 68.4187 32.8371C69.0937 33.2624 69.7687 33.9002 70.4437 34.3254V34.7507C70.6687 34.538 70.8937 34.9633 71.3436 34.9633C71.5686 34.7507 70.2187 33.0497 69.9937 32.8371C69.9937 32.8371 69.9937 32.6245 69.7687 32.6245C69.9937 32.6245 69.9937 32.6245 69.9937 32.6245C69.9937 32.6245 69.9937 32.6245 69.9937 32.4119C69.9937 32.1993 69.3187 31.5614 69.3187 31.5614H69.5437C69.5437 31.1362 69.3187 30.9236 69.0937 30.711H68.8687C68.8687 30.711 68.6437 30.711 68.6437 30.4984C69.0937 30.4984 69.0937 30.4984 69.0937 30.4984C68.8687 30.2858 68.6437 30.2858 68.1937 30.2858L67.2937 29.4353C67.0687 29.2227 67.0687 29.2227 66.8437 29.0101C66.8437 29.0101 66.8437 29.0101 67.0687 29.2227C66.8437 29.0101 66.3937 29.0101 66.1687 29.0101C66.1687 29.0101 66.1687 29.0101 66.6187 29.0101C66.3937 28.7975 66.1687 28.7975 65.9438 28.7975C65.9438 28.7975 65.9438 28.7975 65.7188 28.7975H65.4937C64.8188 28.3722 64.5938 28.1596 64.1438 27.947Z" fill="#1A1A1A"/>
<path d="M45.694 28.3722C45.919 28.3722 46.144 28.1596 46.144 28.1596C46.144 28.1596 46.144 28.1596 46.369 28.1596C46.369 28.1596 46.594 28.1596 45.694 28.3722ZM51.9938 26.6713C51.0939 26.8839 49.7439 27.3092 48.8439 27.5218H49.0689C49.0689 27.5218 48.8439 27.5218 48.8439 27.7344H49.0689L47.0439 28.1596H47.2689C48.3939 28.1596 49.5189 27.5218 50.6439 28.1596C49.9689 29.0101 49.2939 28.3722 48.6189 28.3722C49.0689 28.5848 49.2939 28.7975 49.7439 29.0101L50.1939 28.7975H49.9689V28.5848C51.3189 27.947 54.9188 27.7344 54.9188 27.7344H55.1438C55.1438 27.7344 59.8687 28.1596 60.3187 28.3722C60.9937 28.3722 61.6686 28.3722 62.5686 28.1596C63.4686 28.1596 64.3686 28.1596 65.2686 28.5848C65.2686 28.3722 65.2686 28.3722 65.7186 28.3722C66.1686 28.3722 66.6185 28.3722 67.0685 28.3722H67.2935C67.2935 28.1596 67.2935 28.1596 66.8435 28.1596C67.5185 27.947 68.1935 27.7344 68.8685 27.947C69.0935 27.7344 69.5435 27.7344 69.9935 27.5218C69.7685 27.3092 68.8685 26.2461 63.4686 25.6082C61.4437 25.3956 59.6437 25.3956 57.6187 25.3956C55.5938 25.8209 53.7938 26.2461 51.9938 26.6713Z" fill="#1A1A1A"/>
<path d="M46.369 30.2854L46.819 30.0728C46.819 30.0728 46.819 30.0728 47.044 30.0728L46.369 30.2854ZM52.4439 28.3719C51.5439 28.5845 50.1939 29.0098 49.294 29.2224H49.5189C49.5189 29.2224 49.294 29.2224 49.294 29.435H49.5189L47.719 30.0728H47.944C49.069 30.2854 50.1939 29.435 51.3189 30.0728C50.8689 30.7107 49.9689 30.2854 49.294 30.2854C49.7439 30.4981 49.9689 30.7107 50.4189 30.9233L50.8689 30.7107H50.6439V30.4981C51.9939 29.8602 55.5938 29.6476 55.5938 29.6476H55.8188C55.8188 29.6476 60.5437 30.0728 60.9937 30.2854C61.6687 30.2854 62.3437 30.2854 63.2437 30.0728C64.1437 30.0728 65.0436 30.0728 65.9436 30.4981C65.9436 30.2854 65.9436 30.2854 66.3936 30.2854C66.8436 30.2854 67.2936 30.2854 67.7436 30.2854H67.9686C67.9686 30.2854 67.9686 30.2854 67.5186 30.0728C68.1936 29.8602 68.8686 29.6476 69.5436 29.8602C69.7685 29.6476 70.2185 29.6476 70.6685 29.435C70.4435 29.2224 69.5435 28.1593 64.1437 27.5214C62.3437 27.3088 60.3187 27.3088 58.2938 27.3088C56.2688 27.7341 54.4689 28.1593 52.4439 28.3719Z" fill="#1A1A1A"/>
<path d="M61.6687 31.3485C61.6687 31.5611 61.6687 31.5611 61.6687 31.3485V31.3485ZM61.2187 31.3485C60.9937 31.3485 60.9937 31.3485 61.2187 31.3485C60.9937 31.3485 60.9937 31.3485 61.2187 31.3485C60.9937 31.3485 60.9937 31.3485 61.2187 31.3485C60.9937 31.3485 61.2187 31.3485 61.2187 31.3485ZM55.1438 25.3953H55.8188C55.5938 25.3953 55.3688 25.3953 55.1438 25.3953ZM62.3437 25.8205C62.3437 25.8205 62.5687 25.8205 62.3437 25.8205V25.8205ZM56.0438 25.3953H56.7188H56.9438H57.1688C56.9438 25.1827 56.0438 25.3953 56.0438 25.3953ZM65.7186 27.3088C65.9436 27.3088 65.9436 27.3088 65.7186 27.3088V27.3088ZM63.4686 26.2457C63.9186 26.2457 64.1436 26.4583 64.3686 26.4583H65.0436H65.2686C65.4936 26.4583 65.4936 26.4583 65.7186 26.4583C65.9436 26.4583 65.9436 26.4583 66.1686 26.4583H66.3936C66.3936 26.4583 66.1686 26.2457 65.9436 26.2457C65.2686 26.2457 64.5936 26.2457 64.1436 26.0331C63.9186 26.2457 63.6936 26.2457 63.4686 26.2457ZM60.0937 30.9233C60.3187 30.9233 60.3187 30.9233 60.0937 30.9233V30.9233ZM60.0937 31.5611C59.8687 31.5611 59.8687 31.5611 60.0937 31.5611C59.8687 31.5611 60.0937 31.5611 60.0937 31.5611ZM59.8687 31.1359C59.6437 31.1359 59.6437 31.1359 59.8687 31.1359C59.6437 31.1359 59.8687 31.1359 59.8687 31.1359C59.8687 31.3485 59.8687 31.1359 59.8687 31.1359C59.8687 31.1359 59.6437 31.1359 59.8687 31.1359C59.6437 31.1359 59.6437 31.1359 59.8687 31.1359C59.6437 31.1359 59.6437 31.1359 59.8687 31.1359C59.6437 31.1359 59.6437 31.1359 59.8687 31.1359C59.6437 31.1359 59.8687 31.1359 59.8687 31.1359ZM60.9937 31.1359C60.9937 31.1359 60.9937 31.1359 60.7687 31.1359V30.9233L60.5437 31.1359H60.3187C60.3187 31.1359 60.3187 31.1359 60.3187 30.9233H60.0937C60.0937 30.9233 60.0937 30.9232 60.0937 30.7106C60.0937 30.498 60.0937 30.7106 59.8687 30.7106H59.6437L59.1937 30.9233C59.1937 30.9233 59.1937 30.9233 59.1937 31.1359C59.1937 31.1359 59.1937 31.1359 59.1937 31.3485C59.1937 31.5611 59.1937 31.3485 59.4187 31.3485C59.4187 31.3485 59.4187 31.3485 59.4187 31.5611H59.6437C59.6437 31.5611 59.6437 31.7737 59.8687 31.7737C60.0937 31.7737 60.0937 31.7737 60.0937 31.5611L60.5437 31.3485C60.9937 31.3485 60.9937 31.3485 60.9937 31.1359ZM60.0937 25.6079C60.0937 25.6079 60.3187 25.6079 60.0937 25.6079V25.6079Z" fill="#1A1A1A"/>
<path d="M69.9934 63.028C69.9934 63.028 69.7684 63.2375 69.9934 63.028C69.9934 63.2375 69.9934 63.2375 69.9934 63.028Z" fill="#1A1A1A"/>
<path d="M70.6685 62.8158H70.4435C70.4435 63.0254 70.4435 63.0254 70.6685 62.8158C70.6685 63.0254 70.6685 62.8158 70.6685 62.8158Z" fill="#1A1A1A"/>
<path d="M72.4684 62.6005C72.4684 62.391 72.4684 62.391 72.4684 62.6005C72.4684 62.6005 72.6934 62.6005 72.4684 62.6005Z" fill="#1A1A1A"/>
<path d="M72.0186 62.1741C72.0186 62.1741 72.0186 61.9688 72.0186 62.1741C71.7936 62.1741 71.7936 62.1741 72.0186 62.1741Z" fill="#1A1A1A"/>
<path d="M68.1935 62.6028C67.9685 62.6028 67.9685 62.6028 68.1935 62.6028C68.1935 62.8081 68.1935 62.6028 68.1935 62.6028Z" fill="#1A1A1A"/>
<path d="M67.7434 62.6012L67.5184 62.3901C67.5184 62.6012 67.7434 62.6012 67.7434 62.6012Z" fill="#1A1A1A"/>
<path d="M72.4686 61.1125C72.4686 60.9029 72.4686 60.9029 72.4686 61.1125C72.2436 60.9029 72.2436 61.1125 72.4686 61.1125C72.2436 61.1125 72.2436 61.1125 72.4686 61.1125C72.2436 61.1125 72.4686 61.1125 72.4686 61.1125Z" fill="#1A1A1A"/>
<path d="M72.4671 60.6852C72.245 60.6852 72.4671 60.6852 72.4671 60.6852C72.4671 60.6852 72.4671 60.482 72.4671 60.6852C72.245 60.6852 72.4671 60.6852 72.4671 60.6852Z" fill="#1A1A1A"/>
<path d="M72.2435 60.0516C72.0185 60.0516 72.0185 60.2612 72.2435 60.0516C72.0185 60.2612 72.2435 60.2612 72.2435 60.0516Z" fill="#1A1A1A"/>
<path d="M72.2436 59.6265C72.0186 59.6265 72.0186 59.6265 72.0186 59.6265C72.0186 59.6265 71.7936 59.6265 71.7936 59.8391V60.0517C72.0186 59.8391 72.0186 59.8391 72.2436 59.6265Z" fill="#1A1A1A"/>
<path d="M72.0186 59.1977C72.0186 59.1977 72.0186 58.9924 72.0186 59.1977C71.7936 59.1977 71.7936 59.1977 72.0186 59.1977C71.7936 59.1977 72.0186 59.1977 72.0186 59.1977Z" fill="#1A1A1A"/>
<path d="M71.3421 59.1968C71.3421 59.1968 71.3421 58.9935 71.3421 59.1968C71.12 58.9935 71.3421 59.1968 71.3421 59.1968Z" fill="#1A1A1A"/>
<path d="M72.0171 58.7761C71.7949 58.9793 72.0171 58.7761 72.0171 58.7761V58.7761Z" fill="#1A1A1A"/>
<path d="M70.2171 58.9846C70.2171 58.9846 70.2171 58.7814 70.2171 58.9846C70.2171 58.9846 69.995 58.9846 70.2171 58.9846Z" fill="#1A1A1A"/>
<path d="M71.1184 58.5632C71.1184 58.5632 71.1184 58.7664 71.1184 58.5632C71.1184 58.7664 71.3406 58.5632 71.1184 58.5632Z" fill="#1A1A1A"/>
<path d="M69.9934 58.7759C69.9934 58.7759 69.7684 58.5632 69.5434 58.5632C69.3184 58.5632 69.3184 58.5632 69.0934 58.5632C69.0934 58.5632 69.0934 58.7759 69.0934 58.9885C69.3184 58.9885 69.5434 58.9885 69.5434 58.9885H69.7684L69.9934 58.7759C69.7684 58.7759 69.7684 58.7759 69.9934 58.7759Z" fill="#1A1A1A"/>
<path d="M63.6936 59.4137C63.6936 59.4137 63.2436 58.9884 62.7937 58.9884C62.5687 58.9884 62.3437 59.201 62.5687 59.201C62.7937 59.4137 63.0186 59.4137 63.2436 59.4137C63.2436 59.4137 63.2437 59.4137 63.4686 59.4137H63.6936C63.4686 59.4137 63.4686 59.4137 63.6936 59.4137Z" fill="#1A1A1A"/>
<path d="M70.4434 58.563C70.4434 58.563 70.4434 58.3515 70.4434 58.563C70.2184 58.563 69.9934 58.563 69.9934 58.7745C70.2184 58.563 70.4434 58.563 70.4434 58.563Z" fill="#1A1A1A"/>
<path d="M65.7186 58.7726C65.4936 58.5673 65.4936 58.7726 65.4936 58.7726C65.2686 58.7726 65.4936 58.7726 65.7186 58.7726Z" fill="#1A1A1A"/>
<path d="M68.1936 58.7758C68.1936 58.7758 67.7436 58.3507 67.5186 58.3507C67.2936 58.3507 67.2936 58.3507 67.2936 58.3507C67.2936 58.3507 67.2936 58.3507 67.2936 58.1382H67.0686H66.8436C66.6186 58.1382 66.3936 58.1382 66.1686 58.1382C65.9436 58.1382 65.9436 58.1382 65.9436 58.1382C65.9436 58.1382 65.9436 58.1382 65.7186 58.1382C65.4936 58.1382 65.2686 58.3507 65.2686 58.3507H65.4936V58.5632C65.4936 58.5632 65.4936 58.7758 65.7186 58.7758C65.4936 58.7758 65.2686 58.7758 65.0436 58.7758C64.3686 58.7758 64.3686 58.9883 64.8186 58.9883C64.8186 58.9883 65.0436 58.9883 65.2686 58.9883C65.4936 58.9883 65.7186 58.9883 66.1686 58.9883C66.1686 58.9883 66.1686 58.9883 66.6186 59.4133L66.8436 59.2008L67.0686 58.9883H67.2936C67.5186 58.9883 67.5186 58.9883 67.7436 58.7758H68.1936C68.1936 58.9883 67.9686 58.9883 68.1936 58.7758Z" fill="#1A1A1A"/>
<path d="M65.7187 57.2878C65.7187 57.0751 65.7187 57.0751 65.7187 57.2878C65.4937 57.2878 65.4937 57.2878 65.7187 57.2878C65.4937 57.5004 65.4937 57.5004 65.4937 57.5004V57.713C65.4937 57.5004 65.7187 57.5004 65.7187 57.2878Z" fill="#1A1A1A"/>
<path d="M66.6188 57.0734C66.6188 57.0734 66.3938 56.8623 66.1688 56.8623C65.9438 56.8623 65.9438 56.8623 65.9438 57.0734C65.9438 57.0734 65.9438 57.0734 66.1688 57.0734C66.3938 56.8623 66.3938 56.8623 66.6188 57.0734C66.3938 56.8623 66.6188 56.8623 66.6188 57.0734Z" fill="#1A1A1A"/>
<path d="M65.2683 56.6497C65.2683 56.437 65.0433 56.437 65.0433 56.437C65.0433 56.437 65.0433 56.437 65.0433 56.6497C65.0433 56.6497 65.0433 56.6497 65.2683 56.6497C65.0433 56.6497 65.0433 56.6497 65.2683 56.6497C65.0433 56.6497 65.0433 56.8623 65.0433 56.8623L65.2683 56.6497Z" fill="#1A1A1A"/>
<path d="M64.5938 56.4371C64.5938 56.2245 64.5938 56.2245 64.5938 56.4371C64.5938 56.2245 64.5938 56.2245 64.3688 56.0118L64.5938 56.4371C64.5938 56.4371 64.8188 56.4371 64.5938 56.4371Z" fill="#1A1A1A"/>
<path d="M64.3687 56.0109L64.1437 55.7994C64.1437 56.0109 64.3687 56.2224 64.3687 56.0109Z" fill="#1A1A1A"/>
<path d="M65.0437 55.7971C65.0437 55.5875 65.0437 55.5875 65.0437 55.7971C64.8188 55.5875 64.8188 55.5875 65.0437 55.7971C64.8188 55.5875 64.8188 55.7971 65.0437 55.7971C64.8188 55.7971 64.8188 55.7971 65.0437 55.7971C64.8188 55.7971 65.0437 55.7971 65.0437 55.7971Z" fill="#1A1A1A"/>
<path d="M64.3687 55.5849C64.3687 55.5849 64.3687 55.3738 64.1437 55.3738C64.1437 55.3738 64.3687 55.5849 64.3687 55.5849Z" fill="#1A1A1A"/>
<path d="M64.1438 55.1617C64.1438 54.9491 63.9188 54.9491 63.6938 54.7365C63.6938 54.7365 63.6938 54.7365 63.9188 54.7365C63.9188 54.9491 63.9188 54.9491 64.1438 55.1617C63.9188 55.1617 63.9188 55.1617 64.1438 55.1617C63.9188 55.1617 63.9188 55.3743 64.1438 55.1617C63.9188 55.3743 64.1438 55.3743 64.1438 55.1617Z" fill="#1A1A1A"/>
<path d="M63.6936 54.3103C63.6936 54.098 63.4686 53.8857 63.0186 53.8857C63.2436 53.8857 63.0186 54.098 63.0186 54.098H62.7936C62.7936 54.098 63.2436 54.098 63.2436 53.8857C63.2436 53.6735 63.2436 53.8857 63.4686 53.8857C63.4686 54.098 63.4686 54.3103 63.6936 54.3103C63.4686 54.5225 63.4686 54.5225 63.4686 54.5225C63.4686 54.5225 63.6936 54.5225 63.6936 54.3103Z" fill="#1A1A1A"/>
<path d="M38.2692 31.1344L38.4942 30.9233L38.2692 31.1344Z" fill="#1A1A1A"/>
<path d="M38.7191 30.7074C38.9441 30.5022 38.9441 30.7074 38.7191 30.7074V30.7074Z" fill="#1A1A1A"/>
<path d="M38.494 30.9212C38.719 30.7116 38.719 30.7116 38.494 30.9212V30.9212Z" fill="#1A1A1A"/>
<path d="M38.0442 31.5599C38.2692 31.3488 38.2692 31.3488 38.2692 31.3488L38.0442 31.5599Z" fill="#1A1A1A"/>
<path d="M38.0442 31.559C38.0442 31.3495 38.2692 31.3495 38.0442 31.559C38.2692 31.3495 38.0442 31.559 38.0442 31.559Z" fill="#1A1A1A"/>
<path d="M39.8442 29.8586L40.0692 29.6475C40.0692 29.8586 39.8442 29.8586 39.8442 29.8586Z" fill="#1A1A1A"/>
<path d="M49.7439 38.5776C49.7439 38.5776 49.5189 38.5776 49.7439 38.5776C49.2939 38.5776 49.2939 38.5776 49.0689 38.7899C48.8439 39.0022 48.8439 39.2145 48.8439 39.4267C48.8439 39.4267 48.8439 39.2145 49.0689 39.2145C49.0689 39.2145 49.2939 39.0022 49.2939 38.7899C49.5189 38.7899 49.5189 38.7899 49.7439 38.5776Z" fill="#1A1A1A"/>
<path d="M41.6439 28.796L42.0939 28.5848L41.6439 28.796Z" fill="#1A1A1A"/>
<path d="M42.0941 28.796L42.3191 28.5848L42.0941 28.796Z" fill="#1A1A1A"/>
<path d="M65.2686 38.1522L65.0436 37.7269H64.8186V37.9396C64.8186 37.9396 64.8186 37.9396 64.8186 38.1522C64.8186 38.1522 65.0436 38.1522 65.2686 38.1522C65.0436 37.9396 65.2686 37.9396 65.2686 38.1522Z" fill="#1A1A1A"/>
<path d="M42.9939 28.5831C42.9939 28.5831 43.2189 28.5831 43.2189 28.3719C42.9939 28.5831 42.9939 28.5831 42.9939 28.5831Z" fill="#1A1A1A"/>
<path d="M67.2937 35.601C67.2937 35.601 67.2937 35.8105 67.2937 35.601C67.2937 35.8105 67.2937 35.8105 67.2937 35.601C67.2937 35.8105 67.5187 35.8105 67.2937 35.601Z" fill="#1A1A1A"/>
<path d="M65.0436 35.3883C65.0436 35.3883 64.8186 35.3883 65.0436 35.3883C64.8186 35.3883 64.8186 35.5994 64.8186 35.5994C65.0436 35.5994 65.0436 35.5994 65.0436 35.3883Z" fill="#1A1A1A"/>
<path d="M64.3686 35.1755C64.1436 35.1755 64.1436 35.1755 63.9186 35.3882V35.6008H64.1436C64.3686 35.3882 64.5936 35.3882 64.3686 35.1755Z" fill="#1A1A1A"/>
<path d="M65.2685 34.9609C65.2685 34.7513 65.0435 34.7513 65.2685 34.9609C65.0435 34.9609 65.0435 34.9609 65.2685 34.9609Z" fill="#1A1A1A"/>
<path d="M65.4935 34.7502C65.2685 34.7502 65.2685 34.7502 65.4935 34.7502C65.2685 34.7502 65.2685 34.7502 65.4935 34.7502C65.2685 34.7502 65.2685 34.7502 65.4935 34.7502C65.2685 34.7502 65.4935 34.9555 65.4935 34.7502Z" fill="#1A1A1A"/>
<path d="M65.2685 34.5381C65.0435 34.7477 65.0435 34.7477 65.2685 34.5381C65.2685 34.7477 65.2685 34.7477 65.2685 34.5381Z" fill="#1A1A1A"/>
<path d="M71.7934 30.9228C71.5684 30.9228 71.5684 30.9228 71.3434 30.7106C71.1184 30.4983 71.3434 30.7106 71.3434 30.7106C71.3434 30.7106 71.3434 30.7106 71.1184 30.7106C71.1184 30.7106 71.3434 30.7106 71.3434 30.9228C71.3434 30.9228 71.3434 30.9228 71.5684 30.9228H71.3434C71.3434 30.9228 71.5684 30.9228 71.5684 31.1351C71.5684 31.1351 71.3434 31.1351 71.3434 30.9228H71.1184C71.1184 30.9228 71.1184 30.9228 71.3434 30.9228C71.3434 30.9228 71.3434 30.9228 71.5684 30.9228C71.5684 30.9228 71.7934 30.9228 71.7934 31.1351C71.7934 31.1351 71.7934 31.1351 72.0184 31.1351C72.0184 31.1351 72.2434 31.1351 72.4684 31.1351C72.6934 31.1351 72.4684 31.1351 72.4684 31.1351C72.4684 31.1351 72.4684 31.1351 72.6934 31.1351H72.9184C72.9184 31.1351 72.9184 31.1351 73.1434 31.1351C72.2434 31.3474 72.0184 31.1351 71.7934 30.9228Z" fill="#1A1A1A"/>
<path d="M49.969 26.2444C50.194 26.2444 50.194 26.2444 50.419 26.0333C50.419 26.0333 50.194 26.0333 49.969 26.2444Z" fill="#1A1A1A"/>
<path d="M61.8936 31.561C61.6686 31.561 61.6686 31.561 61.8936 31.561C61.6686 31.3487 61.4436 31.561 61.4436 31.561C61.4436 31.561 61.4436 31.561 61.4436 31.7733V31.9856L61.6686 32.1978V32.4101C61.8936 32.4101 61.8936 32.4101 62.1186 32.1978C61.8936 32.1978 61.8936 31.9856 61.8936 31.561C61.8936 31.7733 61.8936 31.7733 61.8936 31.561Z" fill="#1A1A1A"/>
<path d="M65.9438 81.7384C65.9438 81.7384 74.2687 80.8879 76.5186 79.8248C74.4937 80.8879 66.1688 81.7384 65.9438 81.7384Z" fill="#010101"/>
<path d="M61.8937 76.2102C62.1187 76.2102 75.6184 75.5724 83.2682 72.1705C75.8434 75.5724 62.1187 76.2102 61.8937 76.2102Z" fill="#010101"/>
<path d="M61.8937 68.7688C62.1187 68.7688 75.8434 67.4932 78.5433 66.6427C75.8434 67.4932 61.8937 68.7688 61.8937 68.7688Z" fill="#010101"/>
<path d="M58.9686 51.9719C54.0187 51.7594 49.0688 51.3344 44.1189 50.6968C44.3439 50.6968 55.1437 52.397 61.8935 51.9719C61.2185 51.9719 60.0936 51.9719 58.9686 51.9719Z" fill="#010101"/>
<path d="M49.0688 59.6266C49.0688 59.414 51.9938 38.1526 54.9187 32.6246C51.9938 38.3652 49.0688 59.414 49.0688 59.6266Z" fill="#010101"/>
<path d="M56.7188 60.2646C54.0188 60.2646 51.3189 60.052 48.3939 59.8394C51.3189 60.2646 54.2438 60.2646 57.1687 60.2646H56.7188Z" fill="#1A1A1A"/>
<path d="M68.4185 28.1596C68.4185 28.3722 68.6435 28.5849 68.8685 28.7975C69.0935 29.0101 69.3185 29.2227 69.3185 29.2227C69.0935 29.4353 68.4185 29.0101 67.9685 28.5848C67.7435 28.3722 67.2935 28.1596 67.0685 27.947C65.9435 27.5218 64.8186 27.5218 63.6936 28.1596C63.2436 28.3722 62.7936 28.7975 62.5686 29.2227C62.3436 29.8605 62.3436 30.4984 62.7936 30.9236C63.0186 31.1362 63.4686 31.1362 63.6936 31.1362C64.1436 31.1362 64.3686 31.1362 64.5936 31.5615C64.5936 31.7741 64.8186 31.9867 64.8186 32.1993C64.8186 32.4119 64.8186 32.6245 65.0435 32.8371C65.2685 33.2624 65.9435 33.475 66.3935 33.2624C66.3935 33.2624 66.6185 33.2624 66.6185 33.0498C67.0685 32.6245 67.2935 31.9867 67.2935 31.3488C67.2935 30.711 67.0685 30.2858 66.8435 29.6479C66.8435 29.4353 66.6185 29.2227 66.6185 29.0101C66.6185 28.7975 66.6185 28.7975 66.8435 28.5848C67.0685 28.3722 67.2935 28.3722 67.5185 28.5848C67.7435 28.7975 67.9685 29.0101 68.1935 29.2227C68.1935 29.4353 68.4185 29.4353 68.6435 29.6479C69.0935 30.0731 69.7685 30.2858 70.2184 30.0731C70.2184 30.2858 70.2184 30.711 70.2184 30.9236H70.4434C70.8934 30.711 71.3434 30.9236 71.5684 31.1362C71.7934 31.3488 71.7934 31.5614 71.7934 31.7741C72.0184 31.9867 72.2434 32.4119 72.4684 32.6245C72.6934 32.8371 73.1434 33.0497 73.5934 33.2624C73.8184 33.2624 74.0434 33.475 74.2684 33.475C74.4934 33.6876 74.7184 33.9002 74.9433 34.3254C74.9433 34.5381 74.9433 34.5381 74.9433 34.7507C74.7184 34.9633 72.4684 34.1128 71.1184 33.0498C70.6684 32.6245 70.4434 32.6245 70.2184 33.0498C70.2184 33.2624 69.9935 33.2624 70.2184 33.475C70.2184 33.6876 70.4434 33.9002 70.4434 34.1128C70.6684 34.1128 70.6684 34.3254 70.8934 34.3254C70.8934 34.3254 71.1184 34.3254 71.1184 34.5381C71.5684 34.7507 71.5684 35.1759 71.5684 35.6011C71.5684 36.0264 71.1184 36.239 70.6684 36.239C70.4434 36.239 70.2184 36.0263 70.2184 36.0263C69.9935 35.8137 69.5435 35.6011 69.3185 35.8137C68.8685 36.0264 68.6435 36.4516 68.6435 36.8768C68.6435 37.0894 68.4185 37.302 68.4185 37.5147C68.1935 37.9399 67.5185 37.9399 67.0685 37.9399C66.6185 37.9399 66.3935 37.9399 66.1685 38.1525C65.7185 38.3651 65.2685 38.5777 65.0435 39.003C64.1436 40.2786 64.1436 41.7669 64.1436 43.4679V45.1688C63.4686 44.5309 62.7936 43.8931 62.5686 43.0426V42.83C62.5686 42.4048 62.3436 42.1922 62.3436 41.7669C61.8936 41.1291 60.9936 41.1291 60.3186 41.3417C60.0936 41.3417 59.8686 41.5543 59.6437 41.5543C59.1937 41.7669 58.9687 41.7669 58.5187 41.7669H58.2937C57.8437 41.7669 57.6187 41.7669 57.1687 41.9796C56.9437 42.1922 56.7187 42.4048 56.7187 42.6174C56.2687 43.2552 56.0437 43.8931 55.8187 44.7435C55.5937 45.594 55.8187 46.4445 56.2687 47.0823C56.4937 47.2949 56.9437 47.5075 57.3937 47.5075C57.8437 47.5075 58.0687 47.2949 58.2937 47.0823C58.2937 46.8697 58.5187 46.8697 58.5187 46.6571C58.5187 46.4445 58.7437 46.4445 58.7437 46.2318C58.9687 46.0192 59.1937 46.0192 59.4187 46.0192C59.6437 46.0192 59.8687 46.2318 60.0937 46.4445C60.3186 46.6571 60.3186 47.0823 60.3186 47.2949C60.3186 47.5075 60.0936 47.9328 59.8686 48.1454H59.6437C59.1937 48.358 58.7437 48.7832 58.9687 49.2084C58.9687 49.4211 59.1937 49.4211 59.1937 49.6337C59.8687 50.2715 60.3186 50.0589 60.5436 50.0589L60.7686 49.8463V49.6337C60.7686 49.4211 60.9936 49.4211 61.2186 49.4211C61.4436 49.4211 61.6686 49.8463 61.8936 50.0589C61.8936 50.6967 61.8936 51.3346 61.6686 51.9724C61.4436 52.6103 61.2186 53.4607 61.4436 54.0986C61.6686 54.5238 62.1186 54.7364 62.3436 54.5238C62.7936 54.5238 63.0186 54.5238 63.2436 54.7364C63.6936 55.1616 64.1436 55.3743 65.2685 54.7364C64.8185 53.886 65.0435 53.886 65.0435 53.6733L65.2685 53.4607C65.7185 53.0355 66.3935 52.8229 67.0685 52.8229C67.2935 52.8229 67.5185 52.8229 67.9685 52.8229C68.4185 53.0355 68.6435 53.2481 68.8685 53.4607C69.0935 53.886 69.3185 54.0986 69.7684 54.3112C70.2184 54.5238 70.6684 54.5238 71.1184 54.3112C71.3434 54.3112 71.5684 54.3112 71.7934 54.0986C72.9184 54.0986 74.0434 54.949 74.0434 56.0121C74.0434 56.0121 74.0434 56.2247 74.0434 56.4373C74.0434 56.8626 74.2684 57.2878 74.4933 57.713C74.7183 57.9256 75.1683 58.1382 75.3933 58.1382H75.6183C76.7433 58.3509 77.8683 59.2013 77.8683 60.2644C77.8683 60.477 77.8683 60.477 77.8683 60.6896C77.8683 60.9022 77.8683 61.3275 77.8683 61.5401C78.0933 62.1779 78.9933 62.8158 79.6683 62.8158C80.3432 62.8158 81.0182 63.0284 81.2432 63.4536C81.2432 63.6662 81.4682 63.6662 81.4682 63.8788C81.4682 64.3041 81.9182 64.5167 82.1432 64.7293H82.3682H82.5932C82.8182 64.7293 82.8182 64.9419 82.8182 65.1545C83.2682 66.005 83.0432 67.068 82.3682 67.9185C82.1432 68.1311 81.6932 68.5564 81.2432 68.5564C80.7932 68.769 80.3432 68.9816 79.8932 69.4068C79.4433 70.2573 78.9933 71.1077 78.9933 72.1708V72.3834C78.7683 73.6591 78.3183 74.5096 77.6433 74.9348C77.6433 75.1474 77.1933 75.1474 76.7433 75.1474C76.0683 75.1474 75.6183 75.1474 74.9433 75.5726C74.4934 75.7852 74.2684 76.2105 74.2684 76.6357C74.2684 76.8483 74.0434 77.0609 73.8184 77.2735C73.5934 77.6988 73.1434 77.9114 72.6934 78.124C71.7934 78.5492 71.1184 78.9745 70.2184 79.3997C69.9935 79.3997 69.7684 79.6123 69.5435 79.3997L69.3185 79.1871C69.0935 79.1871 68.8685 79.1871 68.8685 79.1871C68.6435 79.3997 68.6435 79.6123 68.6435 79.8249C68.6435 80.0375 68.8685 80.4628 69.0935 80.4628C68.6435 81.1006 67.9685 81.1006 67.0685 80.888C66.6185 80.888 65.9435 81.3132 65.9435 81.7384V81.951C65.9435 81.951 65.9435 82.1637 65.7185 82.1637C65.7185 82.1637 65.4935 82.1637 65.2685 82.1637C64.8185 82.1637 64.1436 82.5889 63.9186 83.0141C63.4686 83.4393 63.4686 84.0772 63.4686 84.715C63.4686 84.9277 63.4686 85.1403 63.6936 85.1403L63.9186 85.3529L64.1436 85.5655C63.9186 85.5655 63.9186 85.5655 63.6936 85.5655C63.2436 85.3529 62.7936 85.1403 62.3436 84.9277C61.8936 84.5024 61.6686 84.0772 61.6686 83.652C61.6686 83.0141 62.1186 82.5889 62.3436 82.1637C62.7936 81.7384 63.0186 81.3132 63.2436 80.6754C63.2436 80.4627 63.2436 80.2501 63.2436 79.8249C63.2436 79.1871 63.4686 78.7618 63.6936 78.3366C64.1436 77.9114 64.3686 77.2735 64.3686 76.6357C64.3686 76.4231 64.3686 76.2105 64.5936 75.9979C64.5936 75.7852 64.8186 75.36 65.0435 75.1474C65.0435 75.1474 65.0435 74.9348 65.2685 74.9348C65.9435 73.8717 66.1685 72.596 66.1685 71.3203C66.1685 70.0446 65.2685 68.9816 64.1436 68.5564H63.9186C63.6936 68.5564 63.4686 68.5564 63.4686 68.3437C63.0186 68.769 62.7936 68.5564 62.7936 68.3437C62.1186 67.4933 61.8936 66.4302 61.6686 65.3671C61.4436 64.7293 61.2186 64.0914 60.9936 63.4536V63.241C60.7686 63.0284 60.7686 62.8158 60.7686 62.6031C60.7686 61.9653 60.7686 61.3275 61.2186 60.6896C61.4436 60.2644 61.6686 59.6265 61.8936 59.2013C62.1186 58.9887 62.3436 58.7761 62.5686 58.5635C62.7936 58.3509 62.7936 58.3509 63.0186 58.1382C63.4686 57.713 63.6936 57.0752 63.6936 56.4373C63.6936 55.7995 63.2436 55.1616 62.5686 54.5238C62.5686 54.3112 62.3436 54.3112 62.1186 54.3112C61.8936 54.3112 61.8936 54.3112 61.6686 54.5238C61.6686 54.5238 61.4436 54.5238 61.4436 54.7364C61.2186 54.7364 61.2186 54.7364 60.9936 54.7364C60.7686 54.5238 60.5436 54.3112 60.5436 54.0986C60.0936 52.185 58.7437 50.6967 57.1687 49.6337H56.9437C56.7187 49.4211 56.4937 49.2084 56.2687 48.9958C56.2687 48.7832 56.0437 48.5706 56.0437 48.358C56.0437 48.1454 55.8187 47.5075 55.3687 47.5075C55.3687 47.5075 55.1437 47.5075 55.1437 47.7201C55.1437 47.9328 55.1437 47.9328 55.1437 48.1454V48.358C55.1437 48.5706 54.9187 48.5706 54.9187 48.5706C54.6938 48.5706 54.4688 48.358 54.4688 48.358L52.6688 46.8697C52.2188 46.6571 51.9938 46.2318 51.7688 46.0192C51.5438 45.594 51.3188 45.1688 51.5438 44.7435C51.5438 44.5309 51.5438 44.5309 51.7688 44.3183C51.7688 44.1057 51.7688 44.1057 51.9938 43.8931C52.2188 43.2552 52.2188 42.6174 51.9938 41.9796C51.7688 41.1291 51.7688 40.2786 51.5438 39.4282C51.5438 39.003 51.3188 38.7903 51.0938 38.7903C50.8688 38.7903 50.6438 39.2156 50.6438 39.6408C50.6438 40.7039 50.8688 41.9796 50.8688 43.0426C50.6438 42.83 50.6438 42.83 50.6438 42.6174C50.6438 42.4048 50.6438 42.4048 50.6438 42.1922C50.6438 41.9796 50.6438 41.7669 50.6438 41.5543C50.6438 41.3417 50.4188 41.1291 50.4188 40.9165C50.1938 40.7039 50.1938 40.4913 50.1938 40.2786C50.1938 40.066 50.1938 40.066 50.1938 39.8534V39.6408C50.1938 39.2156 50.1938 38.7903 50.1938 38.3651C50.1938 38.1525 50.1938 37.9399 50.1938 37.7273C50.1938 36.8768 50.4188 36.0264 50.6438 35.3885C51.0938 34.7507 51.5438 34.1128 52.2188 33.6876H51.9938C52.2188 33.475 52.4438 33.2624 52.6688 33.0498C52.6688 32.8371 52.8938 32.6245 52.8938 32.4119V32.1993C53.3438 30.9236 54.6938 29.0101 56.9437 29.2227C57.3937 29.2227 59.6437 28.1596 60.0937 27.947C63.4686 26.8839 65.4935 27.5218 67.9685 27.947C67.7435 27.947 68.1935 28.5849 68.6435 28.1596C68.4185 27.947 68.4185 28.1596 68.4185 28.1596Z" fill="#161616"/>
<path d="M35.1192 81.1006C31.2943 77.6987 28.1444 73.4464 25.8944 68.9815C23.8695 64.7293 22.9695 60.0517 23.4195 55.3742C23.8695 49.6336 26.1194 43.8931 30.1693 38.1525C20.9445 50.9093 22.7445 61.9653 25.8944 68.9815C28.1444 73.4464 31.2943 77.6987 35.1192 81.1006Z" fill="#010101"/>
<path d="M69.9936 43.2553C69.9936 43.2553 67.2937 36.2391 65.7188 34.1129C67.2937 36.2391 69.9936 43.2553 69.9936 43.2553Z" fill="#010101"/>
<path d="M64.8187 48.9957C64.8187 48.9957 63.4687 39.2154 62.3438 37.5145C63.6937 39.2154 64.8187 48.9957 64.8187 48.9957Z" fill="#010101"/>
<path d="M57.6188 89.1797C53.7939 89.1797 49.969 88.5419 46.3691 87.2662C43.6691 86.4157 41.1942 85.3527 38.9442 83.8644C41.1942 85.3527 43.6691 86.4157 46.3691 87.2662C51.994 89.1797 58.0688 89.605 63.9187 88.5419C61.8938 88.9671 59.6438 89.1797 57.6188 89.1797Z" fill="#010101"/>
<path d="M77.6436 80.2501C77.6436 80.2501 80.5685 76.6357 81.6935 68.1311C80.5685 76.6357 77.6436 80.2501 77.6436 80.2501Z" fill="#010101"/>
<path d="M91.3678 55.7996C90.9178 51.9726 90.0179 48.3581 88.2179 44.7437C84.393 36.6643 77.4181 30.4985 68.8683 27.0967C73.5932 29.0102 77.8681 31.7742 81.468 35.3886C84.168 38.1526 86.6429 41.3418 88.2179 44.9563C90.0179 48.1455 90.9178 51.9726 91.3678 55.7996Z" fill="#010101"/>
<path d="M74.9432 31.7731C74.9432 31.7731 74.9432 31.7731 75.1682 30.2854L74.9432 31.7731Z" fill="#010101"/>
<path d="M74.9432 31.7731C74.9432 31.7731 74.9432 31.1355 75.1682 30.2854C75.1682 31.7731 74.9432 31.7731 74.9432 31.7731Z" fill="#010101"/>
<path d="M81.9183 36.6632C81.9183 36.0256 81.6933 35.6006 81.2433 35.1755C81.6933 35.3881 81.9183 36.0256 81.9183 36.6632Z" fill="#010101"/>
<path d="M86.418 44.3173C86.418 44.3173 87.318 43.2546 87.093 42.8296L86.418 44.3173Z" fill="#1A1A1A"/>
<path d="M22.6328 84.8866L26.6623 80.4343L27.2279 80.8914L25.2288 83.1001L25.2836 83.1444L29.3806 82.6313L30.1195 83.2284L26.3403 83.6521L26.0899 87.6806L25.4058 87.1277L25.6552 83.7459L24.5048 83.9001L23.1983 85.3436L22.6328 84.8866Z" fill="#231F20"/>
<path d="M36.9887 88.206L37.6227 88.5543L35.5504 91.9226C35.3364 92.2704 35.061 92.5345 34.7242 92.7151C34.3901 92.8949 34.0222 92.9797 33.6203 92.9695C33.2195 92.9576 32.8138 92.8388 32.4031 92.6132C31.9924 92.3875 31.6824 92.1131 31.4732 91.7899C31.2649 91.4649 31.16 91.1204 31.1584 90.7561C31.1595 90.3911 31.267 90.0347 31.481 89.687L33.5533 86.3186L34.1872 86.6669L32.1455 89.9855C31.9926 90.2339 31.9129 90.4859 31.9061 90.7415C31.9004 90.9954 31.9674 91.2349 32.107 91.4601C32.2494 91.6845 32.4662 91.8768 32.7576 92.0369C33.049 92.197 33.3332 92.2799 33.61 92.2858C33.8879 92.29 34.1413 92.2265 34.3702 92.0952C34.6019 91.9633 34.7942 91.7731 34.947 91.5247L36.9887 88.206Z" fill="#231F20"/>
<path d="M45.5049 93.6526C45.572 93.3623 45.5143 93.1016 45.3318 92.8706C45.1492 92.6395 44.8849 92.4683 44.5388 92.3571C44.2857 92.2757 44.0497 92.245 43.8308 92.2649C43.6138 92.2854 43.4267 92.3494 43.2697 92.4569C43.1145 92.565 43.0044 92.7091 42.9395 92.8893C42.8853 93.0401 42.8749 93.1814 42.9084 93.3133C42.9444 93.4439 43.0072 93.5636 43.0967 93.6724C43.1869 93.7794 43.287 93.8762 43.397 93.9628C43.5076 94.0476 43.611 94.1209 43.7071 94.1826L44.2321 94.5237C44.367 94.6102 44.5134 94.7167 44.6713 94.8434C44.831 94.9707 44.9734 95.1201 45.0985 95.2916C45.2261 95.4619 45.312 95.6557 45.3563 95.8731C45.4005 96.0905 45.3749 96.3315 45.2796 96.5964C45.1697 96.9016 44.9894 97.1514 44.7388 97.3458C44.4901 97.5408 44.1851 97.6613 43.8239 97.7072C43.4646 97.7538 43.0654 97.7065 42.6262 97.5653C42.2169 97.4337 41.8859 97.2544 41.6333 97.0276C41.3826 96.8013 41.2137 96.5438 41.1266 96.2552C41.0414 95.9673 41.0432 95.6652 41.1321 95.3491L41.8466 95.5788C41.7885 95.7981 41.7975 95.998 41.8737 96.1784C41.9524 96.3576 42.0772 96.5126 42.2481 96.6435C42.4215 96.7731 42.6217 96.8744 42.8487 96.9474C43.1129 97.0324 43.3654 97.0663 43.6061 97.0493C43.8475 97.0305 44.0571 96.9645 44.2348 96.8514C44.4133 96.7364 44.5395 96.5759 44.6137 96.3699C44.6812 96.1824 44.6832 96.0127 44.6195 95.8609C44.5558 95.7091 44.4507 95.5686 44.3041 95.4394C44.1575 95.3102 43.9937 95.1857 43.8126 95.0659L43.1808 94.6412C42.7799 94.3707 42.4916 94.0759 42.3158 93.7568C42.1401 93.4376 42.1207 93.0877 42.2578 92.7071C42.3717 92.3908 42.5575 92.1427 42.8153 91.963C43.0756 91.782 43.3763 91.6735 43.7173 91.6374C44.0608 91.6002 44.4149 91.6401 44.7796 91.7574C45.1481 91.8758 45.452 92.0464 45.6916 92.2691C45.9318 92.49 46.0952 92.7395 46.1819 93.0177C46.2705 93.2965 46.2681 93.5799 46.1748 93.8679L45.5049 93.6526Z" fill="#231F20"/>
<path d="M49.4904 99.7975L50.0539 93.8194L50.7784 93.8804L50.5275 96.5425L53.7179 96.811L53.9689 94.1489L54.6934 94.2099L54.1299 100.188L53.4054 100.127L53.6574 97.4532L50.467 97.1847L50.215 99.8585L49.4904 99.7975Z" fill="#231F20"/>
<path d="M61.4772 94.3037L62.1972 100.265L61.4742 100.343L60.7542 94.3816L61.4772 94.3037Z" fill="#231F20"/>
<path d="M66.2396 99.9508L65.5078 100.164L65.7616 93.8391L66.4822 93.6291L70.4618 98.7204L69.7299 98.9336L66.4391 94.6306L66.3941 94.6437L66.2396 99.9508ZM65.7822 97.6423L68.732 96.7826L68.9321 97.3958L65.9823 98.2555L65.7822 97.6423Z" fill="#231F20"/>
<path d="M76.7339 96.6116L73.6887 91.4371L75.4845 90.4934C75.8997 90.2752 76.2812 90.1651 76.6289 90.1632C76.9757 90.1596 77.2834 90.2438 77.5522 90.4157C77.821 90.5876 78.0451 90.826 78.2245 91.1309C78.4039 91.4357 78.499 91.7397 78.5098 92.0428C78.5205 92.3459 78.4332 92.6344 78.2478 92.9083C78.0614 93.1804 77.7623 93.4247 77.3506 93.6411L75.8973 94.4048L75.5642 93.8389L76.9968 93.0861C77.2805 92.937 77.4851 92.7765 77.6105 92.6047C77.7377 92.4321 77.7965 92.2512 77.7872 92.062C77.7785 91.8703 77.7132 91.6708 77.5913 91.4636C77.4694 91.2565 77.323 91.0963 77.1522 90.9832C76.9815 90.87 76.7839 90.8172 76.5596 90.8249C76.3343 90.8308 76.0781 90.9092 75.7909 91.0601L74.6594 91.6548L77.3775 96.2734L76.7339 96.6116ZM77.8677 92.9724L80.5436 94.6095L79.7962 95.0023L77.141 93.3543L77.8677 92.9724Z" fill="#231F20"/>
<path d="M85.8524 91.5113L85.2375 91.9673L83.1633 86.0095L83.7688 85.5605L89.3998 88.8804L88.7849 89.3364L84.0945 86.5048L84.0566 86.5329L85.8524 91.5113ZM84.5745 89.5308L87.053 87.6927L87.4668 88.1911L84.9883 90.0291L84.5745 89.5308Z" fill="#231F20"/>
</svg>
